SplineFontDB: 3.0
FontName: Untitled1
FullName: Untitled1
FamilyName: Untitled1
Weight: Regular
Copyright: Copyright (c) 2019, Jack
UComments: "2019-8-23: Created with FontForge (http://fontforge.org)"
Version: 001.000
ItalicAngle: 0
UnderlinePosition: -329
UnderlineWidth: 35
Ascent: 630
Descent: 370
InvalidEm: 0
LayerCount: 2
Layer: 0 0 "Back" 1
Layer: 1 0 "Fore" 0
XUID: [1021 647 -312734098 29385]
StyleMap: 0x0000
FSType: 0
OS2Version: 0
OS2_WeightWidthSlopeOnly: 0
OS2_UseTypoMetrics: 1
CreationTime: 1566577596
ModificationTime: 1567346444
OS2TypoAscent: 0
OS2TypoAOffset: 1
OS2TypoDescent: 0
OS2TypoDOffset: 1
OS2TypoLinegap: 90
OS2WinAscent: 0
OS2WinAOffset: 1
OS2WinDescent: 0
OS2WinDOffset: 1
HheadAscent: 0
HheadAOffset: 1
HheadDescent: 0
HheadDOffset: 1
Lookup: 6 0 0 "semivowels" { "semivowels contextual 0"  "semivowels contextual 1"  } ['liga' ('latn' <'dflt' > 'DFLT' <'dflt' > ) ]
Lookup: 1 0 0 "Single Substitution lookup 1" { "Single Substitution lookup 1 subtable"  } []
Lookup: 1 0 0 "Single Substitution lookup 2" { "Single Substitution lookup 2 subtable"  } []
Lookup: 4 0 1 "diphthongs" { "diphthongs subtable"  } ['liga' ('latn' <'dflt' > 'DFLT' <'dflt' > ) ]

StartChar: ny
Encoding: 0 60256 0
Width: 810
VWidth: 2197
Flags: W
HStem: 34.9453 40<151.868 659.121> 308.571 40<151.868 659.121> 582.198 40<151.868 659.121>
VStem: 111.868 40<74.9453 308.571 348.571 582.198> 659.121 40<74.9453 308.571 348.571 582.198>
CounterMasks: 1 e0
AnchorPoint: "Above" 405 0 basechar 0
LayerCount: 2
Back
SplineSet
131.868164062 602.198242188 m 1
 679.12109375 602.198242188 l 1
 679.12109375 54.9453125 l 1
 131.868164062 54.9453125 l 1
 131.868164062 602.198242188 l 1
131.868164062 328.571289062 m 1
 679.12109375 328.571289062 l 1025
EndSplineSet
Fore
SplineSet
131.868164062 622.198242188 m 2
 679.12109375 622.198242188 l 2
 691.227124034 622.198242188 699.12109375 610.782165654 699.12109375 602.198242188 c 2
 699.12109375 348.571289062 l 1
 699.12109375 328.571289062 l 1
 699.12109375 308.571289062 l 1
 699.12109375 54.9453125 l 2
 699.12109375 42.8392822156 687.705017216 34.9453125 679.12109375 34.9453125 c 2
 131.868164062 34.9453125 l 2
 119.762133778 34.9453125 111.868164062 46.3613890339 111.868164062 54.9453125 c 2
 111.868164062 308.571289062 l 1
 111.868164062 328.571289062 l 1
 111.868164062 348.571289062 l 1
 111.868164062 602.198242188 l 2
 111.868164062 614.304272472 123.284240596 622.198242188 131.868164062 622.198242188 c 2
659.12109375 348.571289062 m 1
 659.12109375 582.198242188 l 1
 151.868164062 582.198242188 l 1
 151.868164062 348.571289062 l 1
 659.12109375 348.571289062 l 1
659.12109375 308.571289062 m 1
 151.868164062 308.571289062 l 1
 151.868164062 74.9453125 l 1
 659.12109375 74.9453125 l 1
 659.12109375 308.571289062 l 1
EndSplineSet
Substitution2: "Single Substitution lookup 82 subtable" ny.cvc.3
Substitution2: "Single Substitution lookup 71 subtable" ny.cvc.1
Substitution2: "Single Substitution lookup 64 subtable" ny.ccv.2
Substitution2: "Single Substitution lookup 60 subtable" ny.cvc.3
Substitution2: "Single Substitution lookup 56 subtable" ny.cvc.1
Substitution2: "Single Substitution lookup 54 subtable" ny.ccv.1
Substitution2: "Single Substitution lookup 31 subtable" ny.ccv.2
Substitution2: "Single Substitution lookup 18 subtable" ny.ccv.2
EndChar

StartChar: dy
Encoding: 1 60257 1
Width: 810
VWidth: 2197
Flags: W
HStem: 34.9453 40<151.868 699.121> 308.571 40<151.868 699.121> 582.198 40<151.868 699.121>
VStem: 111.868 40<74.9453 308.571 348.571 582.198>
CounterMasks: 1 e0
AnchorPoint: "Above" 405 0 basechar 0
LayerCount: 2
Back
SplineSet
679.12109375 54.9453125 m 5
 131.868164062 54.9453125 l 5
 131.868164062 602.198242188 l 5
 679.12109375 602.198242188 l 1029
131.868164062 328.571289062 m 5
 679.12109375 328.571289062 l 1029
EndSplineSet
Fore
SplineSet
699.12109375 54.9453125 m 1
 699.12109375 34.9453125 l 1
 679.12109375 34.9453125 l 1
 131.868164062 34.9453125 l 2
 119.762133778 34.9453125 111.868164062 46.3613890339 111.868164062 54.9453125 c 2
 111.868164062 308.571289062 l 1
 111.868164062 328.571289062 l 1
 111.868164062 348.571289062 l 1
 111.868164062 602.198242188 l 2
 111.868164062 614.304272472 123.284240596 622.198242188 131.868164062 622.198242188 c 2
 679.12109375 622.198242188 l 1
 699.12109375 622.198242188 l 1
 699.12109375 602.198242188 l 1
 699.12109375 582.198242188 l 1
 679.12109375 582.198242188 l 1
 151.868164062 582.198242188 l 1
 151.868164062 348.571289062 l 1
 679.12109375 348.571289062 l 1
 699.12109375 348.571289062 l 1
 699.12109375 328.571289062 l 1
 699.12109375 308.571289062 l 1
 679.12109375 308.571289062 l 1
 151.868164062 308.571289062 l 1
 151.868164062 74.9453125 l 1
 679.12109375 74.9453125 l 1
 699.12109375 74.9453125 l 1
 699.12109375 54.9453125 l 1
EndSplineSet
Substitution2: "Single Substitution lookup 82 subtable" dy.cvc.3
Substitution2: "Single Substitution lookup 71 subtable" dy.cvc.1
Substitution2: "Single Substitution lookup 64 subtable" dy.ccv.2
Substitution2: "Single Substitution lookup 60 subtable" dy.cvc.3
Substitution2: "Single Substitution lookup 56 subtable" dy.cvc.1
Substitution2: "Single Substitution lookup 54 subtable" dy.ccv.1
Substitution2: "Single Substitution lookup 36 subtable" dy.ccv.2
Substitution2: "Single Substitution lookup 23 subtable" dy.ccv.2
EndChar

StartChar: ty
Encoding: 2 60258 2
Width: 810
VWidth: 2197
Flags: W
HStem: 34.9453 40<111.868 659.121> 308.571 40<111.868 659.121> 582.198 40<111.868 659.121>
VStem: 659.121 40<74.9453 308.571 348.571 582.198>
CounterMasks: 1 e0
AnchorPoint: "Above" 405 0 basechar 0
LayerCount: 2
Back
SplineSet
131.868164062 602.198242188 m 5
 679.12109375 602.198242188 l 5
 679.12109375 54.9453125 l 5
 131.868164062 54.9453125 l 1029
131.868164062 328.571289062 m 5
 679.12109375 328.571289062 l 1029
EndSplineSet
Fore
SplineSet
111.868164062 328.571289062 m 1
 111.868164062 348.571289062 l 1
 131.868164062 348.571289062 l 1
 659.12109375 348.571289062 l 1
 659.12109375 582.198242188 l 1
 131.868164062 582.198242188 l 1
 111.868164062 582.198242188 l 1
 111.868164062 602.198242188 l 1
 111.868164062 622.198242188 l 1
 131.868164062 622.198242188 l 1
 679.12109375 622.198242188 l 2
 691.227124034 622.198242188 699.12109375 610.782165654 699.12109375 602.198242188 c 2
 699.12109375 348.571289062 l 1
 699.12109375 328.571289062 l 1
 699.12109375 308.571289062 l 1
 699.12109375 54.9453125 l 2
 699.12109375 42.8392822156 687.705017216 34.9453125 679.12109375 34.9453125 c 2
 131.868164062 34.9453125 l 1
 111.868164062 34.9453125 l 1
 111.868164062 54.9453125 l 1
 111.868164062 74.9453125 l 1
 131.868164062 74.9453125 l 1
 659.12109375 74.9453125 l 1
 659.12109375 308.571289062 l 1
 131.868164062 308.571289062 l 1
 111.868164062 308.571289062 l 1
 111.868164062 328.571289062 l 1
EndSplineSet
Substitution2: "Single Substitution lookup 82 subtable" ty.cvc.3
Substitution2: "Single Substitution lookup 71 subtable" ty.cvc.1
Substitution2: "Single Substitution lookup 64 subtable" ty.ccv.2
Substitution2: "Single Substitution lookup 60 subtable" ty.cvc.3
Substitution2: "Single Substitution lookup 56 subtable" ty.cvc.1
Substitution2: "Single Substitution lookup 54 subtable" ty.ccv.1
Substitution2: "Single Substitution lookup 28 subtable" ty.ccv.2
Substitution2: "Single Substitution lookup 15 subtable" ty.ccv.2
EndChar

StartChar: zy
Encoding: 3 60259 3
Width: 810
VWidth: 2197
Flags: W
HStem: 35.4941 40<206.813 522.169> 308.571 40<206.813 547.212>
VStem: 166.813 40<75.4941 308.571 348.571 622.198>
AnchorPoint: "Above" 405 0 basechar 0
LayerCount: 2
Back
SplineSet
187.912109375 328.571289062 m 5
 545.0546875 328.571289062 l 1029
186.813476562 602.198242188 m 5
 186.813476562 55.494140625 l 5
 539.560546875 55.494140625 l 5
 556.549804688 290.936523438 569.8125 432.146484375 701.098632812 602.198242188 c 1029
EndSplineSet
Fore
SplineSet
186.813476562 622.198242188 m 1
 206.813476562 622.198242188 l 1
 206.813476562 602.198242188 l 1
 206.813476562 348.571289062 l 1
 545.0546875 348.571289062 l 1
 555.826974058 348.571289062 l 1
 577.998835466 440.612783273 615.388963678 523.908177501 685.267641894 614.420342111 c 2
 697.489741818 630.25133303 l 1
 713.320732736 618.029233106 l 1
 729.151723655 605.807133182 l 1
 716.929623731 589.976142264 l 2
 589.105949857 424.409223911 576.529141157 289.929509959 559.508680301 54.0547057297 c 0
 558.863867465 45.1186902689 550.609905479 35.494140625 539.560546875 35.494140625 c 2
 186.813476562 35.494140625 l 2
 178.229553096 35.494140625 166.813476562 43.3881103406 166.813476562 55.494140625 c 2
 166.813476562 602.198242188 l 1
 166.813476562 622.198242188 l 1
 186.813476562 622.198242188 l 1
206.813476562 308.571289062 m 1
 206.813476562 75.494140625 l 1
 520.960326041 75.494140625 l 1
 527.393058117 163.339695178 533.8655506 238.926603405 547.21156362 308.571289062 c 1
 545.0546875 308.571289062 l 1
 206.813476562 308.571289062 l 1
EndSplineSet
Substitution2: "Single Substitution lookup 82 subtable" zy.cvc.3
Substitution2: "Single Substitution lookup 71 subtable" zy.cvc.1
Substitution2: "Single Substitution lookup 64 subtable" zy.ccv.2
Substitution2: "Single Substitution lookup 60 subtable" zy.cvc.3
Substitution2: "Single Substitution lookup 56 subtable" zy.cvc.1
Substitution2: "Single Substitution lookup 54 subtable" zy.ccv.1
Substitution2: "Single Substitution lookup 46 subtable" zy.ccv.2
EndChar

StartChar: sy
Encoding: 4 60260 4
Width: 810
VWidth: 2197
Flags: W
HStem: 308.571 40<308.629 659.121> 582.198 40<348.383 659.121>
VStem: 659.121 40<34.9453 308.571 348.571 582.198>
AnchorPoint: "Above" 405 0 basechar 0
LayerCount: 2
Back
SplineSet
131.868164062 54.9453125 m 5
 229.8125 177.999023438 291.185546875 253.153320312 332.966796875 602.198242188 c 5
 679.12109375 602.198242188 l 5
 679.12109375 54.9453125 l 1029
308.791015625 328.571289062 m 5
 679.12109375 328.571289062 l 1029
EndSplineSet
Fore
SplineSet
119.412965538 39.2970528613 m 1
 103.764705899 51.7522513857 l 1
 116.219904424 67.4005110244 l 2
 213.538052688 189.667502482 271.520810931 257.146910221 313.108560072 604.575305724 c 0
 314.360781177 615.036491492 324.075105829 622.198242188 332.966796875 622.198242188 c 2
 679.12109375 622.198242188 l 2
 691.227124034 622.198242188 699.12109375 610.782165654 699.12109375 602.198242188 c 2
 699.12109375 348.571289062 l 1
 699.12109375 328.571289062 l 1
 699.12109375 308.571289062 l 1
 699.12109375 54.9453125 l 1
 699.12109375 34.9453125 l 1
 679.12109375 34.9453125 l 1
 659.12109375 34.9453125 l 1
 659.12109375 54.9453125 l 1
 659.12109375 308.571289062 l 1
 308.791015625 308.571289062 l 1
 297.350437491 308.571289062 l 1
 259.167314991 183.616631661 210.137702707 121.165217457 147.516423701 42.4901139756 c 2
 135.061225177 26.841854337 l 1
 119.412965538 39.2970528613 l 1
308.628506924 348.571289062 m 1
 308.791015625 348.571289062 l 1
 659.12109375 348.571289062 l 1
 659.12109375 582.198242188 l 1
 350.670397747 582.198242188 l 1
 338.588075394 485.738876792 324.654756425 410.175974667 308.628506924 348.571289062 c 1
EndSplineSet
Substitution2: "Single Substitution lookup 82 subtable" sy.cvc.3
Substitution2: "Single Substitution lookup 71 subtable" sy.cvc.1
Substitution2: "Single Substitution lookup 64 subtable" sy.ccv.2
Substitution2: "Single Substitution lookup 60 subtable" sy.cvc.3
Substitution2: "Single Substitution lookup 56 subtable" sy.cvc.1
Substitution2: "Single Substitution lookup 54 subtable" sy.ccv.1
Substitution2: "Single Substitution lookup 41 subtable" sy.ccv.2
EndChar

StartChar: gy
Encoding: 5 60261 5
Width: 810
VWidth: 2197
Flags: W
AnchorPoint: "Above" 405 0 basechar 0
LayerCount: 2
Back
SplineSet
679.12109375 602.198242188 m 5
 132.966796875 339.560546875 l 5
 679.12109375 54.9453125 l 1029
EndSplineSet
Fore
SplineSet
697.145323618 610.865833415 m 1
 705.812914845 592.841603547 l 1
 687.788684977 584.17401232 l 1
 177.622121667 338.842297125 l 1
 688.363865809 72.6814666676 l 1
 706.100019977 63.4386946081 l 1
 696.857247918 45.7025404405 l 1
 687.614475858 27.9663862729 l 1
 669.878321691 37.2091583324 l 1
 123.724024816 321.824392707 l 2
 121.483358015 322.992062559 117.591295853 326.216088051 115.678160787 329.505545025 c 0
 109.898383287 339.443332342 113.938587143 352.602505282 124.299205648 357.584776743 c 2
 670.453502523 620.222472055 l 1
 688.477732391 628.890063282 l 1
 697.145323618 610.865833415 l 1
EndSplineSet
Substitution2: "Single Substitution lookup 82 subtable" gy.cvc.3
Substitution2: "Single Substitution lookup 71 subtable" gy.cvc.1
Substitution2: "Single Substitution lookup 64 subtable" gy.ccv.2
Substitution2: "Single Substitution lookup 60 subtable" gy.cvc.3
Substitution2: "Single Substitution lookup 56 subtable" gy.cvc.1
Substitution2: "Single Substitution lookup 54 subtable" gy.ccv.1
Substitution2: "Single Substitution lookup 37 subtable" gy.ccv.2
Substitution2: "Single Substitution lookup 24 subtable" gy.ccv.2
EndChar

StartChar: jy
Encoding: 6 60262 6
Width: 810
VWidth: 2197
Flags: W
HStem: 308.571 40<111.868 356.221 451.954 699.121> 580.837 38.3258<650.056 693.101>
VStem: 385.494 40<36.0439 307.664>
AnchorPoint: "Above" 405 0 basechar 0
LayerCount: 2
Back
SplineSet
131.868164062 328.571289062 m 5
 679.12109375 328.571289062 l 1029
405.494140625 251.6484375 m 1
 405.494140625 56.0439453125 l 1025
131.868164062 602.198242188 m 1
 188.588867188 578.239257812 402.5 404.40625 405.494140625 251.6484375 c 1
 402.806640625 398.190429688 607.828125 578.698242188 679.12109375 600 c 1025
EndSplineSet
Fore
SplineSet
113.444365288 609.980506557 m 1
 121.226629658 628.404305332 l 1
 139.650428432 620.622040962 l 2
 192.05362881 598.486781879 342.255913151 479.05612155 401.465421595 348.571289062 c 1
 407.082109486 348.571289062 l 1
 462.917067672 477.823420493 607.223950624 599.391402454 673.395379661 619.162885956 c 2
 692.558265617 624.888600045 l 1
 698.283979706 605.725714089 l 1
 704.009693795 586.562828133 l 1
 684.846807839 580.837114044 l 2
 636.162742056 566.290712108 507.732206499 457.892860757 451.953612545 348.571289062 c 1
 679.12109375 348.571289062 l 1
 699.12109375 348.571289062 l 1
 699.12109375 328.571289062 l 1
 699.12109375 308.571289062 l 1
 679.12109375 308.571289062 l 1
 435.02115763 308.571289062 l 1
 429.211104082 290.978114181 425.81678882 273.661353436 425.494140625 257.020971443 c 2
 425.494140625 251.6484375 l 1
 425.494140625 56.0439453125 l 1
 425.494140625 36.0439453125 l 1
 405.494140625 36.0439453125 l 1
 385.494140625 36.0439453125 l 1
 385.494140625 56.0439453125 l 1
 385.494140625 251.445937316 l 2
 385.105135172 270.015925704 381.026401819 289.207747877 374.131812462 308.571289062 c 1
 131.868164062 308.571289062 l 1
 111.868164062 308.571289062 l 1
 111.868164062 328.571289062 l 1
 111.868164062 348.571289062 l 1
 131.868164062 348.571289062 l 1
 356.221330016 348.571289062 l 1
 296.72549787 460.007962124 164.02800002 566.902788005 124.085899693 583.774443413 c 2
 105.662100918 591.556707783 l 1
 113.444365288 609.980506557 l 1
EndSplineSet
Substitution2: "Single Substitution lookup 82 subtable" jy.cvc.3
Substitution2: "Single Substitution lookup 71 subtable" jy.cvc.1
Substitution2: "Single Substitution lookup 64 subtable" jy.ccv.2
Substitution2: "Single Substitution lookup 60 subtable" jy.cvc.3
Substitution2: "Single Substitution lookup 56 subtable" jy.cvc.1
Substitution2: "Single Substitution lookup 54 subtable" jy.ccv.1
Substitution2: "Single Substitution lookup 44 subtable" jy.ccv.2
EndChar

StartChar: xy
Encoding: 7 60263 7
Width: 810
VWidth: 2197
Flags: W
HStem: 35.5308 38.5488<119.472 164.412>
VStem: 385.297 40<305.151 621.901>
AnchorPoint: "Above" 405 0 basechar 0
LayerCount: 2
Back
SplineSet
405.296875 399.704101562 m 5
 405.296875 601.901367188 l 1029
678.922851562 57.9453125 m 5
 594.637695312 89.1142578125 409.745117188 200.96875 405.296875 399.704101562 c 5
 409.075195312 208.76953125 234.079101562 87.8984375 133.868164062 60.1435546875 c 1029
EndSplineSet
Fore
SplineSet
697.681287776 51.0083772377 m 1
 690.744352513 32.2499410244 l 1
 671.9859163 39.1868762867 l 2
 600.321900175 65.688479877 461.652512618 146.100826558 407.174943488 287.573114445 c 1
 357.777134191 148.626480127 224.759673016 64.5643639915 139.206489153 40.8691601385 c 2
 119.932094604 35.5308350481 l 1
 114.593769514 54.8052295971 l 1
 109.255444423 74.0796241461 l 1
 128.529838972 79.4179492365 l 2
 221.37346146 105.13234655 381.774656082 216.833198598 385.296875 388.006488683 c 2
 385.296875 399.704101562 l 1
 385.296875 601.901367188 l 1
 385.296875 621.901367188 l 1
 405.296875 621.901367188 l 1
 425.296875 621.901367188 l 1
 425.296875 601.901367188 l 1
 425.296875 399.931525472 l 1
 429.580105131 214.669948121 604.519950337 106.783504486 685.859786825 76.7037487133 c 2
 704.618223038 69.766813451 l 1
 697.681287776 51.0083772377 l 1
EndSplineSet
Substitution2: "Single Substitution lookup 82 subtable" xy.cvc.3
Substitution2: "Single Substitution lookup 71 subtable" xy.cvc.1
Substitution2: "Single Substitution lookup 64 subtable" xy.ccv.2
Substitution2: "Single Substitution lookup 60 subtable" xy.cvc.3
Substitution2: "Single Substitution lookup 56 subtable" xy.cvc.1
Substitution2: "Single Substitution lookup 54 subtable" xy.ccv.1
EndChar

StartChar: iy
Encoding: 8 60264 8
Width: 810
VWidth: 2197
Flags: W
HStem: 35.4942 40<151.868 700.2>
VStem: 111.868 40<74.9653 617.802>
AnchorPoint: "Above" 405 0 basechar 0
LayerCount: 2
Back
SplineSet
131.868164062 597.801757812 m 5
 131.868164062 54.9453125 l 5
 680.219726562 55.494140625 l 1029
EndSplineSet
Fore
SplineSet
131.868164062 617.801757812 m 1
 151.868164062 617.801757812 l 1
 151.868164062 597.801757812 l 1
 151.868164062 74.965339899 l 1
 680.199709191 75.4941306076 l 1
 700.199699174 75.5141479792 l 1
 700.219716545 55.5141579966 l 1
 700.239733917 35.514168014 l 1
 680.239743934 35.4941506424 l 1
 131.888181434 34.9453225174 l 2
 123.267228711 34.9366940723 111.868164062 42.8457428906 111.868164062 54.9453125 c 2
 111.868164062 597.801757812 l 1
 111.868164062 617.801757812 l 1
 131.868164062 617.801757812 l 1
EndSplineSet
Substitution2: "Single Substitution lookup 82 subtable" iy.cvc.3
Substitution2: "Single Substitution lookup 71 subtable" iy.cvc.1
Substitution2: "Single Substitution lookup 64 subtable" iy.ccv.2
Substitution2: "Single Substitution lookup 60 subtable" iy.cvc.3
Substitution2: "Single Substitution lookup 56 subtable" iy.cvc.1
Substitution2: "Single Substitution lookup 54 subtable" iy.ccv.1
EndChar

StartChar: ry
Encoding: 9 60265 9
Width: 810
VWidth: 2197
Flags: W
AnchorPoint: "Above" 405 0 basechar 0
LayerCount: 2
Back
SplineSet
131.868164062 54.9453125 m 5
 679.12109375 602.198242188 l 1053
131.868164062 602.198242188 m 5
 679.12109375 54.9453125 l 1029
EndSplineSet
Fore
SplineSet
117.726028439 616.340377811 m 1
 131.868164062 630.482513435 l 1
 146.010299686 616.340377811 l 1
 405.494628906 356.856048591 l 1
 664.978958126 616.340377811 l 1
 679.12109375 630.482513435 l 1
 693.263229374 616.340377811 l 1
 707.405364997 602.198242188 l 1
 693.263229374 588.056106564 l 1
 433.778900154 328.571777344 l 1
 693.263229374 69.0874481237 l 1
 707.405364997 54.9453125 l 1
 693.263229374 40.8031768763 l 1
 679.12109375 26.6610412525 l 1
 664.978958126 40.8031768763 l 1
 405.494628906 300.287506096 l 1
 146.010299686 40.8031768763 l 1
 131.868164062 26.6610412525 l 1
 117.726028439 40.8031768763 l 1
 103.583892815 54.9453125 l 1
 117.726028439 69.0874481237 l 1
 377.210357659 328.571777344 l 1
 117.726028439 588.056106564 l 1
 103.583892815 602.198242188 l 1
 117.726028439 616.340377811 l 1
EndSplineSet
Substitution2: "Single Substitution lookup 82 subtable" ry.cvc.3
Substitution2: "Single Substitution lookup 71 subtable" ry.cvc.1
Substitution2: "Single Substitution lookup 64 subtable" ry.ccv.2
Substitution2: "Single Substitution lookup 60 subtable" ry.cvc.3
Substitution2: "Single Substitution lookup 56 subtable" ry.cvc.1
Substitution2: "Single Substitution lookup 54 subtable" ry.ccv.1
Substitution2: "Single Substitution lookup 52 subtable" ry.ccv.2
Substitution2: "Single Substitution lookup 50 subtable" ry.ccv.2
Substitution2: "Single Substitution lookup 48 subtable" ry.ccv.2
Substitution2: "Single Substitution lookup 45 subtable" ry.ccv.2
Substitution2: "Single Substitution lookup 43 subtable" ry.ccv.2
Substitution2: "Single Substitution lookup 40 subtable" ry.ccv.2
Substitution2: "Single Substitution lookup 33 subtable" ry.ccv.2
Substitution2: "Single Substitution lookup 20 subtable" ry.ccv.2
Substitution2: "Single Substitution lookup 12 subtable" ry.ccv.2
Substitution2: "Single Substitution lookup 10 subtable" ry.ccv.2
Substitution2: "Single Substitution lookup 8 subtable" ry.ccv.2
Substitution2: "Single Substitution lookup 6 subtable" ry.ccv.2
EndChar

StartChar: my
Encoding: 16 60272 16
Width: 810
VWidth: 2197
Flags: W
HStem: 34.9453 40<151.868 659.121> 582.198 40<151.868 659.121>
VStem: 111.868 40<74.9453 582.198> 659.121 40<74.9453 582.198>
AnchorPoint: "Above" 405 0 basechar 0
LayerCount: 2
Back
SplineSet
131.868164062 602.198242188 m 5
 679.12109375 602.198242188 l 5
 679.12109375 54.9453125 l 5
 131.868164062 54.9453125 l 5
 131.868164062 602.198242188 l 5
EndSplineSet
Fore
SplineSet
131.868164062 622.198242188 m 2
 679.12109375 622.198242188 l 2
 691.227124034 622.198242188 699.12109375 610.782165654 699.12109375 602.198242188 c 2
 699.12109375 54.9453125 l 2
 699.12109375 42.8392822156 687.705017216 34.9453125 679.12109375 34.9453125 c 2
 131.868164062 34.9453125 l 2
 119.762133778 34.9453125 111.868164062 46.3613890339 111.868164062 54.9453125 c 2
 111.868164062 602.198242188 l 2
 111.868164062 614.304272472 123.284240596 622.198242188 131.868164062 622.198242188 c 2
151.868164062 582.198242188 m 1
 151.868164062 74.9453125 l 1
 659.12109375 74.9453125 l 1
 659.12109375 582.198242188 l 1
 151.868164062 582.198242188 l 1
EndSplineSet
Substitution2: "Single Substitution lookup 82 subtable" my.cvc.3
Substitution2: "Single Substitution lookup 71 subtable" my.cvc.1
Substitution2: "Single Substitution lookup 64 subtable" my.ccv.2
Substitution2: "Single Substitution lookup 60 subtable" my.cvc.3
Substitution2: "Single Substitution lookup 56 subtable" my.cvc.1
Substitution2: "Single Substitution lookup 54 subtable" my.ccv.1
Substitution2: "Single Substitution lookup 38 subtable" my.ccv.2
Substitution2: "Single Substitution lookup 30 subtable" my.ccv.2
Substitution2: "Single Substitution lookup 25 subtable" my.ccv.2
Substitution2: "Single Substitution lookup 17 subtable" my.ccv.2
EndChar

StartChar: by
Encoding: 17 60273 17
Width: 810
VWidth: 2197
Flags: W
HStem: 34.9453 40<151.868 699.121> 582.198 40<151.868 699.121>
VStem: 111.868 40<74.9453 582.198>
AnchorPoint: "Above" 405 0 basechar 0
LayerCount: 2
Back
SplineSet
679.12109375 54.9453125 m 5
 131.868164062 54.9453125 l 5
 131.868164062 602.198242188 l 5
 679.12109375 602.198242188 l 1029
EndSplineSet
Fore
SplineSet
699.12109375 54.9453125 m 1
 699.12109375 34.9453125 l 1
 679.12109375 34.9453125 l 1
 131.868164062 34.9453125 l 2
 119.762133778 34.9453125 111.868164062 46.3613890339 111.868164062 54.9453125 c 2
 111.868164062 602.198242188 l 2
 111.868164062 614.304272472 123.284240596 622.198242188 131.868164062 622.198242188 c 2
 679.12109375 622.198242188 l 1
 699.12109375 622.198242188 l 1
 699.12109375 602.198242188 l 1
 699.12109375 582.198242188 l 1
 679.12109375 582.198242188 l 1
 151.868164062 582.198242188 l 1
 151.868164062 74.9453125 l 1
 679.12109375 74.9453125 l 1
 699.12109375 74.9453125 l 1
 699.12109375 54.9453125 l 1
EndSplineSet
Substitution2: "Single Substitution lookup 82 subtable" by.cvc.3
Substitution2: "Single Substitution lookup 71 subtable" by.cvc.1
Substitution2: "Single Substitution lookup 64 subtable" by.ccv.2
Substitution2: "Single Substitution lookup 60 subtable" by.cvc.3
Substitution2: "Single Substitution lookup 56 subtable" by.cvc.1
Substitution2: "Single Substitution lookup 54 subtable" by.ccv.1
Substitution2: "Single Substitution lookup 34 subtable" by.ccv.2
Substitution2: "Single Substitution lookup 21 subtable" by.ccv.2
EndChar

StartChar: py
Encoding: 18 60274 18
Width: 810
VWidth: 2197
Flags: W
HStem: 34.9453 40<111.868 659.121> 582.198 40<111.868 659.121>
VStem: 659.121 40<74.9453 582.198>
AnchorPoint: "Above" 405 0 basechar 0
LayerCount: 2
Back
SplineSet
131.868164062 602.198242188 m 5
 679.12109375 602.198242188 l 5
 679.12109375 54.9453125 l 5
 131.868164062 54.9453125 l 1029
EndSplineSet
Fore
SplineSet
111.868164062 602.198242188 m 1
 111.868164062 622.198242188 l 1
 131.868164062 622.198242188 l 1
 679.12109375 622.198242188 l 2
 691.227124034 622.198242188 699.12109375 610.782165654 699.12109375 602.198242188 c 2
 699.12109375 54.9453125 l 2
 699.12109375 42.8392822156 687.705017216 34.9453125 679.12109375 34.9453125 c 2
 131.868164062 34.9453125 l 1
 111.868164062 34.9453125 l 1
 111.868164062 54.9453125 l 1
 111.868164062 74.9453125 l 1
 131.868164062 74.9453125 l 1
 659.12109375 74.9453125 l 1
 659.12109375 582.198242188 l 1
 131.868164062 582.198242188 l 1
 111.868164062 582.198242188 l 1
 111.868164062 602.198242188 l 1
EndSplineSet
Substitution2: "Single Substitution lookup 82 subtable" py.cvc.3
Substitution2: "Single Substitution lookup 71 subtable" py.cvc.1
Substitution2: "Single Substitution lookup 64 subtable" py.ccv.2
Substitution2: "Single Substitution lookup 60 subtable" py.cvc.3
Substitution2: "Single Substitution lookup 56 subtable" py.cvc.1
Substitution2: "Single Substitution lookup 54 subtable" py.ccv.1
Substitution2: "Single Substitution lookup 26 subtable" py.ccv.2
Substitution2: "Single Substitution lookup 13 subtable" py.ccv.2
EndChar

StartChar: vy
Encoding: 19 60275 19
Width: 810
VWidth: 2197
Flags: W
HStem: 35.4941 40<151.868 394.214>
VStem: 111.868 40<75.4941 622.198>
AnchorPoint: "Above" 405 0 basechar 0
LayerCount: 2
Back
SplineSet
131.868164062 602.198242188 m 5
 131.868164062 55.494140625 l 5
 405.494140625 55.494140625 l 5
 480.248046875 297.5859375 543.504882812 431.475585938 679.12109375 602.198242188 c 1029
EndSplineSet
Fore
SplineSet
131.868164062 622.198242188 m 1
 151.868164062 622.198242188 l 1
 151.868164062 602.198242188 l 1
 151.868164062 75.494140625 l 1
 390.763290439 75.494140625 l 1
 464.523858591 311.369525308 528.957769801 445.316995775 663.460768277 614.638266548 c 2
 675.900792638 630.298592021 l 1
 691.561118111 617.85856766 l 1
 707.221443583 605.4185433 l 1
 694.781419223 589.758217827 l 2
 560.579672259 420.816182383 499.076644607 290.774789357 424.603851128 49.5933809716 c 0
 422.205411189 41.8259924339 414.393801002 35.494140625 405.494140625 35.494140625 c 2
 131.868164062 35.494140625 l 2
 123.284240596 35.494140625 111.868164062 43.3881103406 111.868164062 55.494140625 c 2
 111.868164062 602.198242188 l 1
 111.868164062 622.198242188 l 1
 131.868164062 622.198242188 l 1
EndSplineSet
Substitution2: "Single Substitution lookup 82 subtable" vy.cvc.3
Substitution2: "Single Substitution lookup 71 subtable" vy.cvc.1
Substitution2: "Single Substitution lookup 64 subtable" vy.ccv.2
Substitution2: "Single Substitution lookup 60 subtable" vy.cvc.3
Substitution2: "Single Substitution lookup 56 subtable" vy.cvc.1
Substitution2: "Single Substitution lookup 54 subtable" vy.ccv.1
Substitution2: "Single Substitution lookup 35 subtable" vy.ccv.2
Substitution2: "Single Substitution lookup 22 subtable" vy.ccv.2
EndChar

StartChar: fy
Encoding: 20 60276 20
Width: 810
VWidth: 2197
Flags: W
HStem: 582.198 40<348.686 659.121>
VStem: 659.121 40<34.9453 582.198>
AnchorPoint: "Above" 405 0 basechar 0
LayerCount: 2
Back
SplineSet
131.868164062 54.9453125 m 5
 229.8125 177.999023438 291.185546875 253.153320312 332.966796875 602.198242188 c 5
 679.12109375 602.198242188 l 5
 679.12109375 54.9453125 l 1029
EndSplineSet
Fore
SplineSet
119.412965538 39.2970528613 m 1
 103.764705899 51.7522513857 l 1
 116.219904424 67.4005110244 l 2
 213.538052688 189.667502482 271.520810931 257.146910221 313.108560072 604.575305724 c 0
 314.360781177 615.036491492 324.075105829 622.198242188 332.966796875 622.198242188 c 2
 679.12109375 622.198242188 l 2
 691.227124034 622.198242188 699.12109375 610.782165654 699.12109375 602.198242188 c 2
 699.12109375 54.9453125 l 1
 699.12109375 34.9453125 l 1
 679.12109375 34.9453125 l 1
 659.12109375 34.9453125 l 1
 659.12109375 54.9453125 l 1
 659.12109375 582.198242188 l 1
 350.670397747 582.198242188 l 1
 308.686102737 247.016119497 244.351756745 164.150513904 147.516423701 42.4901139756 c 2
 135.061225177 26.841854337 l 1
 119.412965538 39.2970528613 l 1
EndSplineSet
Substitution2: "Single Substitution lookup 82 subtable" fy.cvc.3
Substitution2: "Single Substitution lookup 71 subtable" fy.cvc.1
Substitution2: "Single Substitution lookup 64 subtable" fy.ccv.2
Substitution2: "Single Substitution lookup 60 subtable" fy.cvc.3
Substitution2: "Single Substitution lookup 56 subtable" fy.cvc.1
Substitution2: "Single Substitution lookup 54 subtable" fy.ccv.1
Substitution2: "Single Substitution lookup 27 subtable" fy.ccv.2
Substitution2: "Single Substitution lookup 14 subtable" fy.ccv.2
EndChar

StartChar: ky
Encoding: 21 60277 21
Width: 810
VWidth: 2197
Flags: W
AnchorPoint: "Above" 405 0 basechar 0
LayerCount: 2
Back
SplineSet
131.868164062 605.494140625 m 5
 682.41796875 339.560546875 l 5
 131.868164062 54.9453125 l 1029
EndSplineSet
Fore
SplineSet
113.859064712 614.193125657 m 1
 122.558049744 632.202225007 l 1
 140.567149095 623.503239975 l 1
 139.666694127 623.938189227 139.567149095 623.503239975 140.567149095 623.503239975 c 1
 691.116953782 357.569646225 l 2
 701.468875022 352.569329099 705.486143072 339.403136139 699.689057895 329.475435088 c 0
 697.733741215 326.126890283 693.137683022 322.58779989 691.602559543 321.794194071 c 2
 141.052754856 37.1789596959 l 1
 141.052754856 36.1789596959 141.941072496 37.6381892355 141.052754856 37.1789596959 c 1
 123.286402052 27.9943689026 l 1
 114.101811258 45.7607217068 l 1
 104.917220465 63.5270745109 l 1
 122.683573269 72.7116653041 l 1
 637.692426253 338.953455146 l 1
 123.16917903 587.485041275 l 1
 105.16007968 596.184026307 l 1
 113.859064712 614.193125657 l 1
EndSplineSet
Substitution2: "Single Substitution lookup 82 subtable" ky.cvc.3
Substitution2: "Single Substitution lookup 71 subtable" ky.cvc.1
Substitution2: "Single Substitution lookup 64 subtable" ky.ccv.2
Substitution2: "Single Substitution lookup 60 subtable" ky.cvc.3
Substitution2: "Single Substitution lookup 56 subtable" ky.cvc.1
Substitution2: "Single Substitution lookup 54 subtable" ky.ccv.1
Substitution2: "Single Substitution lookup 29 subtable" ky.ccv.2
Substitution2: "Single Substitution lookup 16 subtable" ky.ccv.2
EndChar

StartChar: cy
Encoding: 22 60278 22
Width: 810
VWidth: 2197
Flags: W
HStem: 35.8979 38.0949<652.295 695.367> 319.561 40<111.868 358.954 449.064 699.121>
VStem: 385.494 40<360.46 622.198>
AnchorPoint: "Above" 405 0 basechar 0
LayerCount: 2
Back
SplineSet
131.868164062 339.560546875 m 1
 679.12109375 339.560546875 l 1025
405.494140625 416.483398438 m 1
 405.494140625 602.198242188 l 1025
131.868164062 54.9453125 m 1
 188.58984375 80.4541015625 402.500976562 253.837890625 405.494140625 416.483398438 c 1
 402.806640625 259.440429688 607.828125 77.7724609375 679.12109375 54.9453125 c 1025
EndSplineSet
Fore
SplineSet
113.627813008 46.7422890697 m 1
 105.424789577 64.9826401245 l 1
 123.665140632 73.1856635548 l 2
 164.573048407 91.5827067343 300.880748576 201.42805827 358.953586094 319.560546875 c 1
 131.868164062 319.560546875 l 1
 111.868164062 319.560546875 l 1
 111.868164062 339.560546875 l 1
 111.868164062 359.560546875 l 1
 131.868164062 359.560546875 l 1
 375.314229203 359.560546875 l 1
 381.491859501 378.741584665 385.127876356 397.895236309 385.494140625 416.672764374 c 2
 385.494140625 602.198242188 l 1
 385.494140625 622.198242188 l 1
 405.494140625 622.198242188 l 1
 425.494140625 622.198242188 l 1
 425.494140625 602.198242188 l 1
 425.494140625 416.483398438 l 1
 425.494140625 410.701286669 l 2
 425.794015373 394.002505793 428.745799732 376.854328959 433.823748397 359.560546875 c 1
 679.12109375 359.560546875 l 1
 699.12109375 359.560546875 l 1
 699.12109375 339.560546875 l 1
 699.12109375 319.560546875 l 1
 679.12109375 319.560546875 l 1
 449.063638926 319.560546875 l 1
 503.211037044 202.733908148 635.543134281 89.8986428125 685.219855373 73.992756073 c 2
 704.267298946 67.8939944501 l 1
 698.168537323 48.8465508771 l 1
 692.0697757 29.7991073041 l 1
 673.022332127 35.897868927 l 2
 606.387860596 57.2334227603 458.959262458 182.857048039 404.978430382 319.560546875 c 1
 403.444742575 319.560546875 l 1
 344.825558875 180.920846856 192.580485542 60.3193645294 140.071187493 36.7049614452 c 2
 121.830836438 28.5019380149 l 1
 113.627813008 46.7422890697 l 1
EndSplineSet
Substitution2: "Single Substitution lookup 82 subtable" cy.cvc.3
Substitution2: "Single Substitution lookup 71 subtable" cy.cvc.1
Substitution2: "Single Substitution lookup 64 subtable" cy.ccv.2
Substitution2: "Single Substitution lookup 60 subtable" cy.cvc.3
Substitution2: "Single Substitution lookup 56 subtable" cy.cvc.1
Substitution2: "Single Substitution lookup 54 subtable" cy.ccv.1
Substitution2: "Single Substitution lookup 39 subtable" cy.ccv.2
EndChar

StartChar: yhy
Encoding: 23 60279 23
Width: 810
VWidth: 2197
Flags: W
VStem: 111.868 40<102.957 618.901> 662.418 40<34.9453 553.087>
AnchorPoint: "Above" 405 0 basechar 0
LayerCount: 2
Back
SplineSet
131.868164062 598.901367188 m 29
 131.868164062 54.9453125 l 5
 682.41796875 601.098632812 l 29
 682.41796875 54.9453125 l 1029
EndSplineSet
Fore
SplineSet
131.868164062 618.901367188 m 1
 151.868164062 618.901367188 l 1
 151.868164062 598.901367188 l 1
 151.868164062 102.957163815 l 1
 668.332639569 615.297347608 l 2
 676.49429021 623.393822367 690.24683178 622.798272173 697.678009768 614.026554073 c 0
 700.730313982 610.423632415 702.41796875 605.681079602 702.41796875 601.098632812 c 2
 702.41796875 54.9453125 l 1
 702.41796875 34.9453125 l 1
 682.41796875 34.9453125 l 1
 662.41796875 34.9453125 l 1
 662.41796875 54.9453125 l 1
 662.41796875 553.086781498 l 1
 145.953493244 40.7465977043 l 2
 142.775007145 37.5934938034 138.154504251 35.3782046617 133.437305771 35.0069626611 c 0
 121.976420185 34.1049946577 111.868164062 43.4489894046 111.868164062 54.9453125 c 2
 111.868164062 598.901367188 l 1
 111.868164062 618.901367188 l 1
 131.868164062 618.901367188 l 1
EndSplineSet
Substitution2: "Single Substitution lookup 82 subtable" yhy.cvc.3
Substitution2: "Single Substitution lookup 71 subtable" yhy.cvc.1
Substitution2: "Single Substitution lookup 64 subtable" yhy.ccv.2
Substitution2: "Single Substitution lookup 60 subtable" yhy.cvc.3
Substitution2: "Single Substitution lookup 56 subtable" yhy.cvc.1
Substitution2: "Single Substitution lookup 54 subtable" yhy.ccv.1
EndChar

StartChar: uy
Encoding: 24 60280 24
Width: 810
VWidth: 2197
Flags: W
HStem: 35.4941 40<111.868 662.418>
VStem: 662.418 40<75.4941 624.396>
AnchorPoint: "Above" 405 0 basechar 0
LayerCount: 2
Back
SplineSet
131.868164062 55.494140625 m 5
 682.41796875 55.494140625 l 5
 682.41796875 604.395507812 l 1029
EndSplineSet
Fore
SplineSet
111.868164062 55.494140625 m 1
 111.868164062 75.494140625 l 1
 131.868164062 75.494140625 l 1
 662.41796875 75.494140625 l 1
 662.41796875 604.395507812 l 1
 662.41796875 624.395507812 l 1
 682.41796875 624.395507812 l 1
 702.41796875 624.395507812 l 1
 702.41796875 604.395507812 l 1
 702.41796875 55.494140625 l 2
 702.41796875 46.9102171589 694.523999034 35.494140625 682.41796875 35.494140625 c 2
 131.868164062 35.494140625 l 1
 111.868164062 35.494140625 l 1
 111.868164062 55.494140625 l 1
EndSplineSet
Substitution2: "Single Substitution lookup 82 subtable" uy.cvc.3
Substitution2: "Single Substitution lookup 71 subtable" uy.cvc.1
Substitution2: "Single Substitution lookup 64 subtable" uy.ccv.2
Substitution2: "Single Substitution lookup 60 subtable" uy.cvc.3
Substitution2: "Single Substitution lookup 56 subtable" uy.cvc.1
Substitution2: "Single Substitution lookup 54 subtable" uy.ccv.1
EndChar

StartChar: ly
Encoding: 25 60281 25
Width: 810
VWidth: 2197
Flags: W
HStem: 34.9453 40<151.868 699.121> 308.571 40<151.868 659.121> 582.198 40<111.868 659.121>
VStem: 111.868 40<74.9453 308.571> 659.121 40<348.571 582.198>
CounterMasks: 1 e0
AnchorPoint: "Above" 405 0 basechar 0
LayerCount: 2
Back
SplineSet
131.868164062 602.198242188 m 5
 679.12109375 602.198242188 l 5
 679.12109375 328.571289062 l 5
 131.868164062 328.571289062 l 5
 131.868164062 54.9453125 l 5
 679.12109375 54.9453125 l 1029
EndSplineSet
Fore
SplineSet
111.868164062 602.198242188 m 1
 111.868164062 622.198242188 l 1
 131.868164062 622.198242188 l 1
 679.12109375 622.198242188 l 2
 691.227124034 622.198242188 699.12109375 610.782165654 699.12109375 602.198242188 c 2
 699.12109375 328.571289062 l 2
 699.12109375 316.465258778 687.705017216 308.571289062 679.12109375 308.571289062 c 2
 151.868164062 308.571289062 l 1
 151.868164062 74.9453125 l 1
 679.12109375 74.9453125 l 1
 699.12109375 74.9453125 l 1
 699.12109375 54.9453125 l 1
 699.12109375 34.9453125 l 1
 679.12109375 34.9453125 l 1
 131.868164062 34.9453125 l 2
 123.284240596 34.9453125 111.868164062 42.8392822156 111.868164062 54.9453125 c 2
 111.868164062 328.571289062 l 2
 111.868164062 337.155212529 119.762133778 348.571289062 131.868164062 348.571289062 c 2
 659.12109375 348.571289062 l 1
 659.12109375 582.198242188 l 1
 131.868164062 582.198242188 l 1
 111.868164062 582.198242188 l 1
 111.868164062 602.198242188 l 1
EndSplineSet
Substitution2: "Single Substitution lookup 82 subtable" ly.cvc.3
Substitution2: "Single Substitution lookup 71 subtable" ly.cvc.1
Substitution2: "Single Substitution lookup 64 subtable" ly.ccv.2
Substitution2: "Single Substitution lookup 60 subtable" ly.cvc.3
Substitution2: "Single Substitution lookup 56 subtable" ly.cvc.1
Substitution2: "Single Substitution lookup 54 subtable" ly.ccv.1
Substitution2: "Single Substitution lookup 51 subtable" ly.ccv.2
Substitution2: "Single Substitution lookup 49 subtable" ly.ccv.2
Substitution2: "Single Substitution lookup 47 subtable" ly.ccv.2
Substitution2: "Single Substitution lookup 42 subtable" ly.ccv.2
Substitution2: "Single Substitution lookup 32 subtable" ly.ccv.2
Substitution2: "Single Substitution lookup 19 subtable" ly.ccv.2
Substitution2: "Single Substitution lookup 11 subtable" ly.ccv.2
Substitution2: "Single Substitution lookup 9 subtable" ly.ccv.2
Substitution2: "Single Substitution lookup 7 subtable" ly.ccv.2
Substitution2: "Single Substitution lookup 5 subtable" ly.ccv.2
EndChar

StartChar: denpabu
Encoding: 31 60287 31
Width: 810
VWidth: 0
Flags: W
HStem: 34 40<308.684 501.316> 582 40<308.684 501.316>
VStem: 112 40<231.549 424.451> 658 40<231.549 424.451>
AnchorPoint: "Above" 405 0 basechar 0
LayerCount: 2
Back
SplineSet
132 328 m 4
 132 479 254 602 405 602 c 4
 556 602 678 479 678 328 c 4
 678 177 556 54 405 54 c 4
 254 54 132 177 132 328 c 4
EndSplineSet
Fore
SplineSet
152 328 m 0
 152 187.961373297 265.129321184 74 405 74 c 0
 544.870680967 74 658 187.96137445 658 328 c 0
 658 468.038626703 544.870678816 582 405 582 c 0
 265.129319033 582 152 468.03862555 152 328 c 0
112 328 m 0
 112 489.96137445 242.870680967 622 405 622 c 0
 567.129321184 622 698 489.961373297 698 328 c 0
 698 166.03862555 567.129319033 34 405 34 c 0
 242.870678816 34 112 166.038626703 112 328 c 0
EndSplineSet
Substitution2: "Single Substitution lookup 77 subtable" denpabu.cvc.1
Substitution2: "Single Substitution lookup 75 subtable" denpabu.cvc.3
Substitution2: "Single Substitution lookup 66 subtable" denpabu.ccv.1
EndChar

StartChar: ebu.cv
Encoding: 42 -1 32
Width: 0
VWidth: 0
Flags: W
HStem: -114 40<152 699>
VStem: 112 40<-363 -114>
AnchorPoint: "Above" 405 0 mark 0
LayerCount: 2
Back
SplineSet
679 -94 m 29
 132 -94 l 29
 132 -343 l 1053
EndSplineSet
Fore
SplineSet
699 -94 m 1
 699 -114 l 1
 679 -114 l 1
 152 -114 l 1
 152 -343 l 1
 152 -363 l 1
 132 -363 l 1
 112 -363 l 1
 112 -343 l 1
 112 -94 l 2
 112 -85.4160765339 119.893969716 -74 132 -74 c 2
 679 -74 l 1
 699 -74 l 1
 699 -94 l 1
EndSplineSet
Substitution2: "Single Substitution lookup 73 subtable" ebu.cvc
Substitution2: "Single Substitution lookup 69 subtable" ebu.ccv
EndChar

StartChar: obu.cv
Encoding: 43 -1 33
Width: 0
VWidth: 0
Flags: W
HStem: -114 40<112 659>
VStem: 659 40<-363 -114>
AnchorPoint: "Above" 405 0 mark 0
LayerCount: 2
Back
SplineSet
132 -94 m 29
 679 -94 l 29
 679 -343 l 1053
EndSplineSet
Fore
SplineSet
112 -94 m 1
 112 -74 l 1
 132 -74 l 1
 679 -74 l 2
 691.106030284 -74 699 -85.4160765339 699 -94 c 2
 699 -343 l 1
 699 -363 l 1
 679 -363 l 1
 659 -363 l 1
 659 -343 l 1
 659 -114 l 1
 132 -114 l 1
 112 -114 l 1
 112 -94 l 1
EndSplineSet
Substitution2: "Single Substitution lookup 73 subtable" obu.cvc
Substitution2: "Single Substitution lookup 69 subtable" obu.ccv
EndChar

StartChar: ibu.cv
Encoding: 44 -1 34
Width: 0
VWidth: 0
Flags: W
HStem: -113.406 40<152 385 425 699>
VStem: 112 40<-362.857 -113.406> 385 40<-266 -113.406>
AnchorPoint: "Above" 405 0 mark 0
LayerCount: 2
Back
SplineSet
405 -94 m 29
 405 -246 l 1029
679 -93.40625 m 5
 132 -93.40625 l 5
 132 -342.857421875 l 1029
EndSplineSet
Fore
SplineSet
699 -93.40625 m 1
 699 -113.40625 l 1
 679 -113.40625 l 1
 425 -113.40625 l 1
 425 -246 l 1
 425 -266 l 1
 405 -266 l 1
 385 -266 l 1
 385 -246 l 1
 385 -113.40625 l 1
 152 -113.40625 l 1
 152 -342.857421875 l 1
 152 -362.857421875 l 1
 132 -362.857421875 l 1
 112 -362.857421875 l 1
 112 -342.857421875 l 1
 112 -93.40625 l 2
 112 -84.8223265339 119.893969716 -73.40625 132 -73.40625 c 2
 679 -73.40625 l 1
 699 -73.40625 l 1
 699 -93.40625 l 1
EndSplineSet
Substitution2: "Single Substitution lookup 73 subtable" ibu.cvc
Substitution2: "Single Substitution lookup 69 subtable" ibu.ccv
EndChar

StartChar: ny.cvc.1
Encoding: 32 -1 35
Width: 810
VWidth: 0
Flags: W
HStem: 252.747 40<194.835 616.154> 417.473 40<194.835 616.154> 582.19 40.0087<194.835 616.154>
VStem: 154.835 40<292.747 417.473 457.473 582.19> 616.154 40<292.747 417.473 457.473 582.198>
CounterMasks: 1 e0
AnchorPoint: "Above" 405 0 basechar 0
LayerCount: 2
Back
SplineSet
174.834960938 602.198242188 m 1
 636.154296875 602.198242188 l 1
 636.154296875 272.747070312 l 1
 174.834960938 272.747070312 l 1
 174.834960938 602.198242188 l 1
174.834960938 437.47265625 m 1
 636.154296875 437.47265625 l 1025
174.834960938 602.198242188 m 1
 636.154296875 602.198242188 l 1
 636.154296875 272.747070312 l 1
 174.834960938 272.747070312 l 1
 174.834960938 602.198242188 l 1
174.834960938 437.47265625 m 1
 636.154296875 437.47265625 l 1025
EndSplineSet
Fore
SplineSet
154.834960938 417.47265625 m 1
 154.834960938 437.47265625 l 1
 154.834960938 457.47265625 l 1
 154.834960938 602.198242188 l 2
 154.834960938 613.559508394 164.815287458 622.198242188 174.834960938 622.198242188 c 2
 636.154296875 622.198242188 l 2
 648.260327159 622.198242188 656.154296875 610.782165654 656.154296875 602.198242188 c 2
 656.154296875 457.47265625 l 1
 656.154296875 437.47265625 l 1
 656.154296875 417.47265625 l 1
 656.154296875 272.747070312 l 2
 656.154296875 260.641040028 644.738220341 252.747070312 636.154296875 252.747070312 c 2
 174.834960938 252.747070312 l 2
 162.728930653 252.747070312 154.834960937 264.163146846 154.834960938 272.747070313 c 2
 154.834960938 417.47265625 l 1
 154.834960938 417.47265625 l 1
616.154296875 582.198242188 m 1
 194.834960938 582.189542655 l 1
 194.834960938 457.47265625 l 1
 616.154296875 457.47265625 l 1
 616.154296875 582.198242188 l 1
616.154296875 417.47265625 m 1
 194.834960938 417.47265625 l 1
 194.834960938 292.747070312 l 1
 616.154296875 292.747070312 l 1
 616.154296875 417.47265625 l 1
EndSplineSet
EndChar

StartChar: ny.ccv.1
Encoding: 96 -1 36
Width: 810
VWidth: 0
Flags: W
HStem: 34.9453 40<124.396 325.055> 308.571 40<124.396 325.055> 582.198 40<124.396 325.055>
VStem: 84.3955 40<74.9453 308.571 348.571 582.198> 325.055 40<74.9453 308.571 348.571 582.198>
CounterMasks: 1 e0
AnchorPoint: "Above" 405 0 basechar 0
LayerCount: 2
Back
SplineSet
345.0546875 328.571289062 m 5
 105.494140625 328.571289062 l 1029
104.395507812 602.198242188 m 5
 345.0546875 602.198242188 l 5
 345.0546875 54.9453125 l 5
 104.395507812 54.9453125 l 5
 104.395507812 602.198242188 l 5
EndSplineSet
Fore
SplineSet
104.395507812 622.198242188 m 2
 345.0546875 622.198242188 l 2
 357.160717784 622.198242188 365.0546875 610.782165654 365.0546875 602.198242188 c 2
 365.0546875 348.571289062 l 1
 365.0546875 328.571289062 l 1
 365.0546875 308.571289062 l 1
 365.0546875 54.9453125 l 2
 365.0546875 42.8392822156 353.638610966 34.9453125 345.0546875 34.9453125 c 2
 104.395507812 34.9453125 l 2
 92.2894775281 34.9453125 84.3955078125 46.3613890339 84.3955078125 54.9453125 c 2
 84.3955078125 602.198242188 l 2
 84.3955078125 614.304272472 95.8115843464 622.198242188 104.395507812 622.198242188 c 2
124.395507812 348.571289062 m 1
 325.0546875 348.571289062 l 1
 325.0546875 582.198242188 l 1
 124.395507812 582.198242188 l 1
 124.395507812 348.571289062 l 1
124.395507812 308.571289062 m 1
 124.395507812 74.9453125 l 1
 325.0546875 74.9453125 l 1
 325.0546875 308.571289062 l 1
 124.395507812 308.571289062 l 1
EndSplineSet
EndChar

StartChar: ebu.ccv
Encoding: 106 -1 38
Width: 0
VWidth: 0
Flags: W
HStem: -114 40<124 385 425 728>
VStem: 84 40<-363 -114> 385 40<-266 -114>
AnchorPoint: "Above" 405 0 mark 0
LayerCount: 2
Back
SplineSet
405 -94 m 5
 405 -246 l 1029
708 -94 m 5
 104 -94 l 5
 104 -343 l 1053
EndSplineSet
Fore
SplineSet
728 -94 m 1
 728 -114 l 1
 708 -114 l 1
 425 -114 l 1
 425 -246 l 1
 425 -266 l 1
 405 -266 l 1
 385 -266 l 1
 385 -246 l 1
 385 -114 l 1
 124 -114 l 1
 124 -343 l 1
 124 -363 l 1
 104 -363 l 1
 84 -363 l 1
 84 -343 l 1
 84 -94 l 2
 84 -85.4160765339 91.8939697156 -74 104 -74 c 2
 385 -74 l 1
 405 -74 l 1
 425 -74 l 1
 708 -74 l 1
 728 -74 l 1
 728 -94 l 1
EndSplineSet
EndChar

StartChar: ry.ccv.2
Encoding: 137 -1 39
Width: 0
VWidth: 0
Flags: W
VStem: 442.054 292.244
AnchorPoint: "Above" 405 0 mark 0
LayerCount: 2
Back
Refer: 67 -1 S 1 0 0 1 364 0 2
Fore
SplineSet
609.7444339 328.571777344 m 1025,24,-1
EndSplineSet
Refer: 67 -1 N 1 0 0 1 364 0 2
EndChar

StartChar: dy.cvc.1
Encoding: 33 -1 40
Width: 810
VWidth: 0
Flags: W
HStem: 252.747 40<194.835 656.154> 417.473 40<194.835 655.055> 582.19 40.0087<194.835 656.154>
VStem: 154.835 40<292.747 417.473 457.473 582.19>
CounterMasks: 1 e0
AnchorPoint: "Above" 405 0 basechar 0
LayerCount: 2
Back
SplineSet
174.834960938 437.47265625 m 5
 635.0546875 437.47265625 l 1029
636.154296875 272.747070312 m 1
 174.834960938 272.747070312 l 1
 174.834960938 602.198242188 l 1
 636.154296875 602.198242188 l 1025
EndSplineSet
Fore
SplineSet
656.154296875 272.747070312 m 1
 656.154296875 252.747070312 l 1
 636.154296875 252.747070312 l 1
 174.834960938 252.747070312 l 2
 162.728930653 252.747070312 154.834960937 264.163146846 154.834960938 272.747070313 c 2
 154.834960938 417.47265625 l 1
 154.834960938 417.47265625 l 1
 154.834960938 437.47265625 l 1
 154.834960938 457.47265625 l 1
 154.834960938 602.198242188 l 2
 154.834960938 613.559508394 164.815287458 622.198242188 174.834960938 622.198242188 c 2
 636.154296875 622.198242188 l 1
 656.154296875 622.198242188 l 1
 656.154296875 602.198242188 l 1
 656.154296875 582.198242188 l 1
 636.154296875 582.198242188 l 1
 194.834960938 582.189542655 l 1
 194.834960938 457.47265625 l 1
 635.0546875 457.47265625 l 1
 655.0546875 457.47265625 l 1
 655.0546875 437.47265625 l 1
 655.0546875 417.47265625 l 1
 635.0546875 417.47265625 l 1
 194.834960938 417.47265625 l 1
 194.834960938 292.747070312 l 1
 636.154296875 292.747070312 l 1
 656.154296875 292.747070312 l 1
 656.154296875 272.747070312 l 1
EndSplineSet
EndChar

StartChar: ty.cvc.1
Encoding: 34 -1 41
Width: 810
VWidth: 0
Flags: W
HStem: 252.747 40<154.835 616.154> 417.473 40<155.934 616.154> 582.198 40<154.835 616.154>
VStem: 616.154 40<292.747 417.473 457.473 582.198>
CounterMasks: 1 e0
AnchorPoint: "Above" 405 0 basechar 0
LayerCount: 2
Back
SplineSet
636.154296875 437.47265625 m 1
 175.93359375 437.47265625 l 1025
174.834960938 602.198242188 m 1
 636.154296875 602.198242188 l 1
 636.154296875 272.747070312 l 1
 174.834960938 272.747070312 l 1025
EndSplineSet
Fore
SplineSet
154.834960938 602.198242188 m 1
 154.834960938 622.198242188 l 1
 174.834960938 622.198242188 l 1
 636.154296875 622.198242188 l 2
 648.260327159 622.198242188 656.154296875 610.782165654 656.154296875 602.198242188 c 2
 656.154296875 457.47265625 l 1
 656.154296875 437.47265625 l 1
 656.154296875 417.47265625 l 1
 656.154296875 272.747070312 l 2
 656.154296875 260.641040028 644.738220341 252.747070312 636.154296875 252.747070312 c 2
 174.834960938 252.747070312 l 1
 154.834960938 252.747070312 l 1
 154.834960938 272.747070312 l 1
 154.834960938 292.747070312 l 1
 174.834960938 292.747070312 l 1
 616.154296875 292.747070312 l 1
 616.154296875 417.47265625 l 1
 175.93359375 417.47265625 l 1
 155.93359375 417.47265625 l 1
 155.93359375 437.47265625 l 1
 155.93359375 457.47265625 l 1
 175.93359375 457.47265625 l 1
 616.154296875 457.47265625 l 1
 616.154296875 582.198242188 l 1
 174.834960938 582.198242188 l 1
 154.834960938 582.198242188 l 1
 154.834960938 602.198242188 l 1
EndSplineSet
EndChar

StartChar: zy.cvc.1
Encoding: 35 -1 42
Width: 810
VWidth: 0
Flags: W
HStem: 252.747 40.0087<194.835 547.933> 417.473 40<194.835 567.032>
VStem: 154.835 40<292.756 417.473 457.473 622.198>
AnchorPoint: "Above" 405 0 basechar 0
LayerCount: 2
Back
SplineSet
573.516601562 437.47265625 m 25
 178.131835938 437.47265625 l 1049
174.834960938 602.198242188 m 25
 174.834960938 272.747070312 l 25
 564.725585938 272.747070312 l 17
 576.256835938 439.880859375 613.112304688 490.341796875 680.110351562 602.198242188 c 1033
EndSplineSet
Fore
SplineSet
174.834960938 622.198242188 m 1
 194.834960938 622.198242188 l 1
 194.834960938 602.198242188 l 1
 194.834960938 457.47265625 l 1
 573.516601562 457.47265625 l 1
 580.091184009 457.47265625 l 1
 600.152448243 510.529336699 627.849957464 553.869449287 662.952660209 612.475091289 c 2
 673.229509311 629.632782642 l 1
 690.387200663 619.355933541 l 1
 707.544892016 609.079084439 l 1
 697.268042915 591.921393087 l 2
 629.739099862 479.178591198 596.00225824 435.501891336 584.678153315 271.370460329 c 0
 584.054243673 262.327522007 575.759966621 252.747070312 564.725585938 252.747070312 c 2
 174.834960938 252.747070312 l 2
 166.251037471 252.747070312 154.834960937 260.641040028 154.834960938 272.747070313 c 2
 154.834960938 602.198242188 l 1
 154.834960938 622.198242188 l 1
 174.834960938 622.198242188 l 1
194.834960938 417.47265625 m 1
 194.834960938 292.755769845 l 1
 546.200469225 292.747070312 l 1
 550.485968036 343.005017694 557.445266739 382.91736126 567.032227775 417.47265625 c 1
 194.834960938 417.47265625 l 1
EndSplineSet
EndChar

StartChar: sy.cvc.1
Encoding: 36 -1 43
Width: 810
VWidth: 0
Flags: W
HStem: 417.473 40<243.957 616.154> 582.198 40<263.056 616.154>
VStem: 616.154 40<252.747 417.473 457.473 582.198>
AnchorPoint: "Above" 405 0 basechar 0
LayerCount: 2
Back
SplineSet
237.47265625 437.47265625 m 25
 632.857421875 437.47265625 l 1049
636.154296875 272.747070312 m 25
 636.154296875 602.198242188 l 25
 246.263671875 602.198242188 l 17
 234.731445312 435.063476562 197.876953125 384.603515625 130.87890625 272.747070312 c 1033
EndSplineSet
Fore
SplineSet
636.154296875 252.747070312 m 1
 616.154296875 252.747070312 l 1
 616.154296875 272.747070312 l 1
 616.154296875 417.47265625 l 1
 237.47265625 417.47265625 l 1
 230.897853089 417.47265625 l 1
 210.836704223 364.41592992 183.139429924 321.076079546 148.036597602 262.470221211 c 1
 149.036597602 262.470221211 148.550440058 263.328105779 148.036597602 262.470221211 c 1
 137.759748501 245.312529859 l 1
 120.602057149 255.58937896 l 1
 103.444365796 265.866228061 l 1
 113.721214898 283.023919414 l 2
 181.25013072 395.766675838 214.986036073 439.44239723 226.311111951 603.574960196 c 0
 226.935058077 612.617714344 235.229265004 622.198242188 246.263671875 622.198242188 c 2
 636.154296875 622.198242188 l 2
 644.738220341 622.198242188 656.154296875 614.304272472 656.154296875 602.198242188 c 2
 656.154296875 272.747070312 l 1
 656.154296875 252.747070312 l 1
 636.154296875 252.747070312 l 1
616.154296875 457.47265625 m 1
 616.154296875 582.198242188 l 1
 264.788695574 582.198242188 l 1
 260.502945124 531.940167835 253.543608957 492.027842266 243.956727024 457.47265625 c 1
 616.154296875 457.47265625 l 1
EndSplineSet
EndChar

StartChar: gy.cvc.1
Encoding: 37 -1 44
Width: 810
VWidth: 0
Flags: W
AnchorPoint: "Above" 405 0 basechar 0
LayerCount: 2
Back
SplineSet
638.3515625 604.395507812 m 1
 173.736328125 438.571289062 l 1
 638.3515625 270.549804688 l 1025
EndSplineSet
Fore
SplineSet
657.187810202 611.118287928 m 1
 663.910590319 592.282040226 l 1
 645.074342616 585.55926011 l 1
 232.88842453 438.447407572 l 1
 645.153180331 289.357728414 l 1
 663.961104057 282.556110583 l 1
 657.159486226 263.748186857 l 1
 650.357868396 244.940263131 l 1
 631.549944669 251.741880961 l 1
 166.934710294 419.763365336 l 2
 162.593976016 421.333130085 157.740390292 425.360558737 155.485593042 430.391394875 c 0
 150.783657718 440.882212237 156.186168534 453.543174149 167.013548009 457.407536765 c 2
 631.628782384 623.231755514 l 1
 650.465030086 629.954535631 l 1
 657.187810202 611.118287928 l 1
EndSplineSet
EndChar

StartChar: jy.cvc.1
Encoding: 38 -1 45
Width: 810
VWidth: 0
Flags: W
HStem: 417.473 40<154.835 348.917 456.032 655.055> 583.066 38.2637<587.321 649.971>
VStem: 385.488 39.9967<253.368 328.061 328.078 416.076>
AnchorPoint: "Above" 405 0 basechar 0
LayerCount: 2
Back
SplineSet
174.834960938 437.47265625 m 1
 635.0546875 437.47265625 l 1025
405.494140625 308.681640625 m 1
 404.395507812 272.747070312 l 1025
174.834960938 602.198242188 m 1
 254.563476562 567.927734375 401.287109375 527.189453125 405.494140625 308.681640625 c 1
 401.715820312 518.708984375 535.942382812 571.66796875 636.154296875 602.198242188 c 1025
EndSplineSet
Fore
SplineSet
156.460510683 610.096316498 m 1
 164.358584993 628.470766754 l 1
 182.733035248 620.572692443 l 2
 239.241448755 596.283114099 341.562237606 565.094723428 393.652600765 457.47265625 c 1
 411.944372488 457.47265625 l 1
 458.714084508 562.962921002 557.287566438 599.078498636 630.325649025 621.330070753 c 2
 649.45747759 627.158718603 l 1
 655.28612544 608.026890038 l 1
 661.11477329 588.895061473 l 1
 641.982944725 583.066413623 l 2
 575.055645654 562.676535232 497.7866095 534.800149247 456.032350461 457.47265625 c 1
 635.0546875 457.47265625 l 1
 655.0546875 457.47265625 l 1
 655.0546875 437.47265625 l 1
 655.0546875 417.47265625 l 1
 635.0546875 417.47265625 l 1
 439.245362643 417.47265625 l 1
 431.241235422 392.06286489 426.369152938 362.54280374 425.540876785 328.078093851 c 1
 426.09597732 328.061122682 l 1
 425.484800001 308.070463306 l 1
 424.386167188 272.135892994 l 1
 423.77498987 252.145233618 l 1
 403.784330494 252.756410937 l 1
 383.793671118 253.367588255 l 1
 384.404848437 273.358247631 l 1
 385.488100442 308.789735659 l 2
 384.610350424 352.076505107 378.040833317 387.76814103 367.450919325 417.47265625 c 1
 174.834960938 417.47265625 l 1
 154.834960938 417.47265625 l 1
 154.834960938 437.47265625 l 1
 154.834960938 457.47265625 l 1
 174.834960938 457.47265625 l 1
 348.91678165 457.47265625 l 1
 302.84129264 536.030353223 223.023302365 559.715605123 166.936886628 583.823791933 c 2
 148.562436372 591.721866243 l 1
 156.460510683 610.096316498 l 1
EndSplineSet
EndChar

StartChar: xy.cvc.1
Encoding: 39 -1 46
Width: 810
VWidth: 0
Flags: W
HStem: 248.134 38.5488<160.439 210.96>
VStem: 385.495 40<441.149 622.198>
AnchorPoint: "Above" 405 0 basechar 0
LayerCount: 2
Back
SplineSet
405.495117188 542.307617188 m 1
 405.495117188 602.198242188 l 1025
636.154296875 272.747070312 m 1
 551.869140625 303.916015625 409.943359375 343.573242188 405.495117188 542.307617188 c 1
 409.2734375 351.374023438 275.046875 300.501953125 174.834960938 272.747070312 c 1025
EndSplineSet
Fore
SplineSet
654.912733088 265.81013505 m 1
 647.975797826 247.051698837 l 1
 629.217361613 253.988634099 l 1
 630.155283423 253.641787336 629.217361613 254.988634099 629.217361613 253.988634099 c 1
 564.831043091 277.798919684 455.010267489 309.606260146 407.538699731 425.713835451 c 1
 364.316178025 311.424076098 258.050681343 275.041747674 180.173237712 253.472662382 c 2
 160.898829782 248.134385607 l 1
 155.560553007 267.408793538 l 1
 150.222276232 286.683201468 l 1
 169.496684163 292.021478243 l 2
 265.868148991 318.712702912 382.040332353 361.985962468 385.495117187 526.793562503 c 2
 385.495117188 542.307617188 l 1
 385.495117188 602.198242188 l 1
 385.495117188 622.198242188 l 1
 405.495117188 622.198242188 l 1
 425.495117188 622.198242188 l 1
 425.495117188 602.198242188 l 1
 425.495117188 542.534100093 l 1
 429.740603674 357.353353859 557.033957252 323.329787502 643.091232137 291.505506526 c 2
 661.849668351 284.568571263 l 1
 654.912733088 265.81013505 l 1
EndSplineSet
EndChar

StartChar: iy.cvc.1
Encoding: 40 -1 47
Width: 810
VWidth: 0
Flags: W
HStem: 252.747 40<194.835 656.154>
VStem: 154.835 40<292.747 622.198>
AnchorPoint: "Above" 405 0 basechar 0
LayerCount: 2
Back
SplineSet
636.154296875 272.747070312 m 1
 174.834960938 272.747070312 l 1
 174.834960938 602.198242188 l 1025
EndSplineSet
Fore
SplineSet
656.154296875 272.747070312 m 1
 656.154296875 252.747070312 l 1
 636.154296875 252.747070312 l 1
 174.834960938 252.747070312 l 2
 162.728930653 252.747070312 154.834960937 264.163146846 154.834960938 272.747070313 c 2
 154.834960938 602.198242188 l 1
 154.834960938 622.198242188 l 1
 174.834960938 622.198242188 l 1
 194.834960938 622.198242188 l 1
 194.834960938 602.198242188 l 1
 194.834960938 292.747070312 l 1
 636.154296875 292.747070312 l 1
 656.154296875 292.747070312 l 1
 656.154296875 272.747070312 l 1
EndSplineSet
EndChar

StartChar: ry.cvc.1
Encoding: 41 -1 48
Width: 810
VWidth: 0
Flags: W
AnchorPoint: "Above" 405 0 basechar 0
LayerCount: 2
Back
SplineSet
174.834960938 272.747070312 m 1
 636.154296875 602.198242188 l 1025
174.834960938 602.198242188 m 1
 636.154296875 272.747070312 l 1025
EndSplineSet
Fore
SplineSet
158.559246323 613.821542656 m 1
 170.18254679 630.097257271 l 1
 186.458261406 618.473956803 l 1
 405.494628906 462.049150091 l 1
 624.530996407 618.473956803 l 1
 640.806711023 630.097257271 l 1
 652.43001149 613.821542656 l 1
 664.053311958 597.54582804 l 1
 647.777597343 585.922527573 l 1
 439.908262204 437.47265625 l 1
 647.777597343 289.022784928 l 1
 664.053311958 277.39948446 l 1
 652.43001149 261.123769845 l 1
 640.806711023 244.84805523 l 1
 624.530996407 256.471355697 l 1
 405.494628906 412.896162409 l 1
 186.458261405 256.471355697 l 1
 170.18254679 244.84805523 l 1
 158.559246322 261.123769845 l 1
 146.935945855 277.39948446 l 1
 163.21166047 289.022784928 l 1
 371.080995609 437.47265625 l 1
 163.21166047 585.922527573 l 1
 146.935945855 597.54582804 l 1
 158.559246323 613.821542656 l 1
EndSplineSet
EndChar

StartChar: my.cvc.1
Encoding: 48 -1 49
Width: 810
VWidth: 0
Flags: W
HStem: 252.747 40<194.835 616.154> 582.19 40.0087<194.835 616.154>
VStem: 154.835 40<292.747 582.19> 616.154 40<292.747 582.198>
AnchorPoint: "Above" 405 0 basechar 0
LayerCount: 2
Back
SplineSet
174.834960938 602.198242188 m 1
 636.154296875 602.198242188 l 1
 636.154296875 272.747070312 l 1
 174.834960938 272.747070312 l 1
 174.834960938 602.198242188 l 1
EndSplineSet
Fore
SplineSet
174.834960938 622.198242188 m 2
 636.154296875 622.198242188 l 2
 648.260327159 622.198242188 656.154296875 610.782165654 656.154296875 602.198242188 c 2
 656.154296875 272.747070312 l 2
 656.154296875 260.641040028 644.738220341 252.747070312 636.154296875 252.747070312 c 2
 174.834960938 252.747070312 l 2
 162.728930653 252.747070312 154.834960937 264.163146846 154.834960938 272.747070313 c 2
 154.834960938 602.198242188 l 2
 154.834960938 613.559508394 164.815287458 622.198242188 174.834960938 622.198242188 c 2
194.834960938 582.189542655 m 1
 194.834960938 292.747070312 l 1
 616.154296875 292.747070312 l 1
 616.154296875 582.198242188 l 1
 194.834960938 582.189542655 l 1
EndSplineSet
EndChar

StartChar: by.cvc.1
Encoding: 49 -1 50
Width: 810
VWidth: 0
Flags: W
HStem: 253 40<195 656> 582 40<195 656>
VStem: 155 40<293 582>
AnchorPoint: "Above" 405 0 basechar 0
LayerCount: 2
Back
SplineSet
636 273 m 1
 175 273 l 1
 175 602 l 1
 636 602 l 1025
EndSplineSet
Fore
SplineSet
656 273 m 1
 656 253 l 1
 636 253 l 1
 175 253 l 2
 162.893969716 253 155 264.416076534 155 273 c 2
 155 602 l 2
 155 614.106030284 166.416076534 622 175 622 c 2
 636 622 l 1
 656 622 l 1
 656 602 l 1
 656 582 l 1
 636 582 l 1
 195 582 l 1
 195 293 l 1
 636 293 l 1
 656 293 l 1
 656 273 l 1
EndSplineSet
EndChar

StartChar: py.cvc.1
Encoding: 50 -1 51
Width: 810
VWidth: 0
Flags: W
HStem: 253 40<155.009 616.309> 582.198 40<154.835 616.164>
VStem: 616.309 40.01<293.189 582.198>
AnchorPoint: "Above" 405 0 basechar 0
LayerCount: 2
Back
SplineSet
174.834960938 602.198242188 m 1
 636.154296875 602.198242188 l 1
 636.319335938 273.197265625 l 1
 175 273 l 1025
EndSplineSet
Fore
SplineSet
154.834960938 602.198242188 m 1
 154.834960938 622.198242188 l 1
 174.834960938 622.198242188 l 1
 636.154296875 622.198242188 l 2
 647.519325421 622.198242188 656.149277396 612.209457015 656.154294359 602.208274927 c 2
 656.319333421 273.207298364 l 2
 656.325406014 261.101746279 644.914549853 253.200939212 636.327888174 253.197267454 c 2
 175.008552237 253.000001829 l 1
 155.008554065 252.991449592 l 1
 155.000001829 272.991447763 l 1
 154.991449592 292.991445935 l 1
 174.991447763 292.999998171 l 1
 616.309304972 293.188710927 l 1
 616.164327099 582.198242188 l 1
 174.834960938 582.198242188 l 1
 154.834960938 582.198242188 l 1
 154.834960938 602.198242188 l 1
EndSplineSet
EndChar

StartChar: vy.cvc.1
Encoding: 51 -1 52
Width: 810
VWidth: 0
Flags: W
HStem: 252.747 40.0087<194.835 547.53>
VStem: 154.835 40<292.756 622.198>
AnchorPoint: "Above" 405 0 basechar 0
LayerCount: 2
Back
SplineSet
174.834960938 602.198242188 m 1
 174.834960938 272.747070312 l 1
 564.725585938 272.747070312 l 1
 576.256835938 439.880859375 613.112304688 490.341796875 680.110351562 602.198242188 c 1025
EndSplineSet
Fore
SplineSet
174.834960938 622.198242188 m 1
 194.834960938 622.198242188 l 1
 194.834960938 602.198242188 l 1
 194.834960938 292.755769845 l 1
 546.200469225 292.747070312 l 1
 559.568278457 449.517304665 598.952452982 505.623682722 662.952660209 612.475091289 c 2
 673.229509311 629.632782642 l 1
 690.387200663 619.355933541 l 1
 707.544892016 609.079084439 l 1
 697.268042915 591.921393087 l 2
 629.739099862 479.178591198 596.00225824 435.501891336 584.678153315 271.370460329 c 0
 584.054243673 262.327522007 575.759966621 252.747070312 564.725585938 252.747070312 c 2
 174.834960938 252.747070312 l 2
 166.251037471 252.747070312 154.834960937 260.641040028 154.834960938 272.747070313 c 2
 154.834960938 602.198242188 l 1
 154.834960938 622.198242188 l 1
 174.834960938 622.198242188 l 1
EndSplineSet
EndChar

StartChar: fy.cvc.1
Encoding: 52 -1 53
Width: 810
VWidth: 0
Flags: W
HStem: 582.198 40<263.459 616.154>
VStem: 616.154 40<252.747 582.198>
AnchorPoint: "Above" 405 0 basechar 0
LayerCount: 2
Back
SplineSet
636.154296875 272.747070312 m 25
 636.154296875 602.198242188 l 25
 246.263671875 602.198242188 l 17
 234.731445312 435.063476562 197.876953125 384.603515625 130.87890625 272.747070312 c 1033
EndSplineSet
Fore
SplineSet
636.154296875 252.747070312 m 1
 616.154296875 252.747070312 l 1
 616.154296875 272.747070312 l 1
 616.154296875 582.198242188 l 1
 264.788695574 582.198242188 l 1
 251.420042813 425.426924725 212.036880696 369.321756439 148.036597602 262.470221211 c 1
 149.036597602 262.470221211 148.550440058 263.328105779 148.036597602 262.470221211 c 1
 137.759748501 245.312529859 l 1
 120.602057149 255.58937896 l 1
 103.444365796 265.866228061 l 1
 113.721214898 283.023919414 l 2
 181.25013072 395.766675838 214.986036073 439.44239723 226.311111951 603.574960196 c 0
 226.935058077 612.617714344 235.229265004 622.198242188 246.263671875 622.198242188 c 2
 636.154296875 622.198242188 l 2
 644.738220341 622.198242188 656.154296875 614.304272472 656.154296875 602.198242188 c 2
 656.154296875 272.747070312 l 1
 656.154296875 252.747070312 l 1
 636.154296875 252.747070312 l 1
EndSplineSet
EndChar

StartChar: ky.cvc.1
Encoding: 53 -1 54
Width: 810
VWidth: 0
Flags: W
AnchorPoint: "Above" 405 0 basechar 0
LayerCount: 2
Back
SplineSet
174.834960938 602.198242188 m 1
 635.0546875 437.47265625 l 1
 174.834960938 272.747070312 l 1025
EndSplineSet
Fore
SplineSet
156.004810873 608.938082581 m 1
 162.744651266 627.768232646 l 1
 181.574801331 621.028392253 l 1
 641.794527893 456.302806315 l 2
 652.618402347 452.428637177 658.009441866 439.762786531 653.298005242 429.276232777 c 0
 650.956573286 424.064753978 645.190920019 419.858170466 641.794527893 418.642506185 c 2
 181.574801331 253.916920247 l 1
 162.744651265 247.177079854 l 1
 156.004810872 266.007229919 l 1
 149.264970479 284.837379985 l 1
 168.095120544 291.577220378 l 1
 575.706101084 437.47265625 l 1
 168.095120545 583.368092123 l 1
 149.26497048 590.107932516 l 1
 156.004810873 608.938082581 l 1
EndSplineSet
EndChar

StartChar: cy.cvc.1
Encoding: 54 -1 55
Width: 810
VWidth: 0
Flags: W
HStem: 247.787 38.2637<161.175 209.041> 417.473 40<155.934 359.067 457.55 656.154>
VStem: 385.021 40.4776<458.754 536.738 536.748 621.714>
AnchorPoint: "Above" 405 0 basechar 0
LayerCount: 2
Back
SplineSet
636.154296875 437.47265625 m 1
 175.93359375 437.47265625 l 1025
405.494140625 556.263671875 m 1
 406.59375 602.198242188 l 1025
636.154296875 272.747070312 m 1
 556.42578125 307.016601562 409.702148438 337.754882812 405.494140625 556.263671875 c 1
 409.2734375 346.236328125 275.046875 303.27734375 174.834960938 272.747070312 c 1025
EndSplineSet
Fore
SplineSet
654.528828784 264.849185967 m 1
 646.630944438 246.474654058 l 1
 628.256412529 254.372538404 l 1
 629.175139125 253.977644187 628.256412529 253.372538404 628.256412529 254.372538404 c 1
 571.420658458 278.802124669 463.722183618 306.107286105 413.379332168 417.47265625 c 1
 402.572626437 417.47265625 l 1
 357.000373634 307.560011876 254.630131164 276.14966966 180.663608788 253.615241748 c 1
 180.663608788 252.615241748 181.620200216 253.90667414 180.663608788 253.615241748 c 1
 161.531780223 247.786593897 l 1
 155.703132373 266.918422462 l 1
 149.874484522 286.050251027 l 1
 169.006313087 291.878898877 l 2
 238.912016077 313.176169238 318.645876416 337.427485965 359.067465299 417.47265625 c 1
 175.93359375 417.47265625 l 1
 155.93359375 417.47265625 l 1
 155.93359375 437.47265625 l 1
 155.93359375 457.47265625 l 1
 175.93359375 457.47265625 l 1
 374.447653727 457.47265625 l 1
 380.838380766 480.234834861 384.709674071 506.435790342 385.445551256 536.737877321 c 1
 385.021233822 536.748034887 l 1
 385.49986873 556.742306783 l 1
 386.599478105 602.676877096 l 1
 387.078113012 622.671148991 l 1
 407.072384908 622.192514083 l 1
 427.066656803 621.713879176 l 1
 426.588021895 601.71960728 l 1
 425.498854776 556.221246884 l 2
 426.284817942 517.199488106 431.667312396 484.724854703 440.441570907 457.47265625 c 1
 636.154296875 457.47265625 l 1
 656.154296875 457.47265625 l 1
 656.154296875 437.47265625 l 1
 656.154296875 417.47265625 l 1
 636.154296875 417.47265625 l 1
 457.549601899 417.47265625 l 1
 502.525417893 335.83672583 585.297986734 316.37578748 644.052181221 291.121602221 c 2
 662.426713129 283.223717876 l 1
 654.528828784 264.849185967 l 1
EndSplineSet
EndChar

StartChar: yhy.cvc.1
Encoding: 55 -1 56
Width: 810
VWidth: 0
Flags: W
VStem: 155 40<311.844 622> 616 40<253 563.156>
AnchorPoint: "Above" 405 0 basechar 0
LayerCount: 2
Back
SplineSet
636 273 m 1
 636 602 l 1
 175 273 l 1
 175 602 l 1025
EndSplineSet
Fore
SplineSet
636 253 m 1
 616 253 l 1
 616 273 l 1
 616 563.155811554 l 1
 186.618081997 256.720559877 l 2
 177.260396823 250.042298658 163.78271925 252.842171315 157.85922053 262.694968259 c 0
 155.988893898 265.805958807 155 269.656337184 155 273 c 2
 155 602 l 1
 155 622 l 1
 175 622 l 1
 195 622 l 1
 195 602 l 1
 195 311.844188446 l 1
 624.381918003 618.279440123 l 2
 626.542686933 619.82150732 630.805348227 621.653023365 634.430858291 621.938349839 c 0
 645.891743878 622.840317842 656 613.496323095 656 602 c 2
 656 273 l 1
 656 253 l 1
 636 253 l 1
EndSplineSet
EndChar

StartChar: uy.cvc.1
Encoding: 56 -1 57
Width: 810
VWidth: 0
Flags: W
HStem: 252.747 40<154.835 616.154>
VStem: 616.154 40<292.747 622.198>
AnchorPoint: "Above" 405 0 basechar 0
LayerCount: 2
Back
SplineSet
636.154296875 602.198242188 m 25
 636.154296875 272.747070312 l 25
 174.834960938 272.747070312 l 1049
EndSplineSet
Fore
SplineSet
636.154296875 622.198242188 m 1
 656.154296875 622.198242188 l 1
 656.154296875 602.198242188 l 1
 656.154296875 272.747070312 l 2
 656.154296875 260.641040028 644.738220341 252.747070312 636.154296875 252.747070312 c 2
 174.834960938 252.747070312 l 1
 154.834960938 252.747070312 l 1
 154.834960938 272.747070312 l 1
 154.834960938 292.747070312 l 1
 174.834960938 292.747070312 l 1
 616.154296875 292.747070312 l 1
 616.154296875 602.198242188 l 1
 616.154296875 622.198242188 l 1
 636.154296875 622.198242188 l 1
EndSplineSet
EndChar

StartChar: ly.cvc.1
Encoding: 57 -1 58
Width: 810
VWidth: 0
Flags: W
HStem: 252.747 40<194.847 656.154> 417.473 40<194.922 616.154> 582.198 40<154.835 616.154>
VStem: 154.835 40.0121<292.747 417.473> 616.154 40<457.473 582.198>
CounterMasks: 1 e0
AnchorPoint: "Above" 405 0 basechar 0
LayerCount: 2
Back
SplineSet
174.834960938 602.198242188 m 25
 636.154296875 602.198242188 l 25
 636.154296875 437.47265625 l 25
 174.934570312 437.47265625 l 25
 174.834960938 272.747070312 l 25
 636.154296875 272.747070312 l 1049
EndSplineSet
Fore
SplineSet
154.834960938 602.198242188 m 1
 154.834960938 622.198242188 l 1
 174.834960938 622.198242188 l 1
 636.154296875 622.198242188 l 2
 648.260327159 622.198242188 656.154296875 610.782165654 656.154296875 602.198242188 c 2
 656.154296875 437.47265625 l 2
 656.154296875 425.366625966 644.738220341 417.47265625 636.154296875 417.47265625 c 2
 194.922479992 417.47265625 l 1
 194.847058571 292.747070312 l 1
 636.154296875 292.747070312 l 1
 656.154296875 292.747070312 l 1
 656.154296875 272.747070312 l 1
 656.154296875 252.747070312 l 1
 636.154296875 252.747070312 l 1
 174.834960938 252.747070312 l 2
 166.228662883 252.747070312 154.827646451 260.657035535 154.834964594 272.759164288 c 2
 154.934573969 437.484750225 l 2
 154.940619376 447.482134434 163.568770611 457.47265625 174.934570312 457.47265625 c 2
 616.154296875 457.47265625 l 1
 616.154296875 582.198242188 l 1
 174.834960938 582.198242188 l 1
 154.834960938 582.198242188 l 1
 154.834960938 602.198242188 l 1
EndSplineSet
EndChar

StartChar: dy.ccv.1
Encoding: 97 -1 59
Width: 810
VWidth: 0
Flags: W
HStem: 34.9453 40<124.396 365.055> 308.571 40<124.396 365.055> 582.198 40<124.396 365.055>
VStem: 84.3955 40<74.9453 308.571 348.571 582.198>
CounterMasks: 1 e0
AnchorPoint: "Above" 405 0 basechar 0
LayerCount: 2
Back
SplineSet
345.0546875 328.571289062 m 29
 104.395507812 328.571289062 l 1053
345.0546875 602.198242188 m 29
 104.395507812 602.198242188 l 29
 104.395507812 54.9453125 l 29
 345.0546875 54.9453125 l 1053
EndSplineSet
Fore
SplineSet
365.0546875 602.198242188 m 1
 365.0546875 582.198242188 l 1
 345.0546875 582.198242188 l 1
 124.395507812 582.198242188 l 1
 124.395507812 348.571289062 l 1
 345.0546875 348.571289062 l 1
 365.0546875 348.571289062 l 1
 365.0546875 328.571289062 l 1
 365.0546875 308.571289062 l 1
 345.0546875 308.571289062 l 1
 124.395507812 308.571289062 l 1
 124.395507812 74.9453125 l 1
 345.0546875 74.9453125 l 1
 365.0546875 74.9453125 l 1
 365.0546875 54.9453125 l 1
 365.0546875 34.9453125 l 1
 345.0546875 34.9453125 l 1
 104.395507812 34.9453125 l 2
 95.8115843464 34.9453125 84.3955078125 42.8392822156 84.3955078125 54.9453125 c 2
 84.3955078125 308.571289062 l 1
 84.3955078125 328.571289062 l 1
 84.3955078125 348.571289062 l 1
 84.3955078125 602.198242188 l 2
 84.3955078125 610.782165654 92.2894775281 622.198242188 104.395507812 622.198242188 c 2
 345.0546875 622.198242188 l 1
 365.0546875 622.198242188 l 1
 365.0546875 602.198242188 l 1
EndSplineSet
EndChar

StartChar: ty.ccv.1
Encoding: 98 -1 60
Width: 810
VWidth: 0
Flags: W
HStem: 34.9453 40<84.3955 325.055> 308.571 40<84.3955 325.055> 582.198 40<84.3955 325.055>
VStem: 325.055 40<74.9453 308.571 348.571 582.198>
CounterMasks: 1 e0
AnchorPoint: "Above" 405 0 basechar 0
LayerCount: 2
Back
SplineSet
104.395507812 328.571289062 m 29
 345.0546875 328.571289062 l 1053
104.395507812 54.9453125 m 29
 345.0546875 54.9453125 l 29
 345.0546875 602.198242188 l 29
 104.395507812 602.198242188 l 1053
EndSplineSet
Fore
SplineSet
84.3955078125 54.9453125 m 1
 84.3955078125 74.9453125 l 1
 104.395507812 74.9453125 l 1
 325.0546875 74.9453125 l 1
 325.0546875 308.571289062 l 1
 104.395507812 308.571289062 l 1
 84.3955078125 308.571289062 l 1
 84.3955078125 328.571289062 l 1
 84.3955078125 348.571289062 l 1
 104.395507812 348.571289062 l 1
 325.0546875 348.571289062 l 1
 325.0546875 582.198242188 l 1
 104.395507812 582.198242188 l 1
 84.3955078125 582.198242188 l 1
 84.3955078125 602.198242188 l 1
 84.3955078125 622.198242188 l 1
 104.395507812 622.198242188 l 1
 345.0546875 622.198242188 l 2
 353.638610966 622.198242188 365.0546875 614.304272472 365.0546875 602.198242188 c 2
 365.0546875 348.571289062 l 1
 365.0546875 328.571289062 l 1
 365.0546875 308.571289062 l 1
 365.0546875 54.9453125 l 2
 365.0546875 46.3613890339 357.160717784 34.9453125 345.0546875 34.9453125 c 2
 104.395507812 34.9453125 l 1
 84.3955078125 34.9453125 l 1
 84.3955078125 54.9453125 l 1
EndSplineSet
EndChar

StartChar: zy.ccv.1
Encoding: 99 -1 61
Width: 810
VWidth: 0
Flags: W
HStem: 34.9453 40<124.396 223.651> 321.758 40<124.396 253.717>
VStem: 84.3955 40<74.9453 321.758 361.758 622.198>
AnchorPoint: "Above" 405 0 basechar 0
LayerCount: 2
Back
SplineSet
117.58203125 341.7578125 m 29
 256.043945312 341.7578125 l 1053
104.395507812 602.198242188 m 29
 104.395507812 54.9453125 l 29
 240.659179688 54.9453125 l 21
 253.796875 240.443359375 283.966796875 423.26171875 352.747070312 600 c 1037
EndSplineSet
Fore
SplineSet
104.395507812 622.198242188 m 1
 124.395507812 622.198242188 l 1
 124.395507812 602.198242188 l 1
 124.395507812 361.7578125 l 1
 256.043945312 361.7578125 l 1
 261.698547305 361.7578125 l 1
 279.175024316 444.475783214 302.622355051 526.345817961 334.108712988 607.253387914 c 2
 341.362100902 625.891745239 l 1
 360.000458227 618.638357325 l 1
 378.638815552 611.38496941 l 1
 371.385427637 592.746612086 l 2
 303.586737849 418.530615184 273.661493371 237.824481677 260.609207356 53.5323737149 c 0
 259.973133413 44.5513103386 251.702283074 34.9453125 240.659179688 34.9453125 c 2
 104.395507812 34.9453125 l 2
 95.8115843464 34.9453125 84.3955078125 42.8392822156 84.3955078125 54.9453125 c 2
 84.3955078125 602.198242188 l 1
 84.3955078125 622.198242188 l 1
 104.395507812 622.198242188 l 1
124.395507812 321.7578125 m 1
 124.395507812 74.9453125 l 1
 222.083647227 74.9453125 l 1
 228.495626511 157.943969988 238.386781831 240.250971876 253.716519797 321.7578125 c 1
 124.395507812 321.7578125 l 1
EndSplineSet
EndChar

StartChar: sy.ccv.1
Encoding: 100 -1 62
Width: 810
VWidth: 0
Flags: W
HStem: 295.385 40<195.734 325.055> 582.198 40<225.799 325.055>
VStem: 325.055 40<34.9453 295.385 335.385 582.198>
AnchorPoint: "Above" 405 0 basechar 0
LayerCount: 2
Back
SplineSet
331.868164062 315.384765625 m 5
 193.40625 315.384765625 l 1029
345.0546875 54.9453125 m 5
 345.0546875 602.198242188 l 5
 208.791015625 602.198242188 l 5
 195.653320312 416.69921875 165.483398438 233.881835938 96.703125 57.142578125 c 1029
EndSplineSet
Fore
SplineSet
345.0546875 34.9453125 m 1
 325.0546875 34.9453125 l 1
 325.0546875 54.9453125 l 1
 325.0546875 295.384765625 l 1
 193.40625 295.384765625 l 1
 187.75154961 295.384765625 l 1
 170.275085958 212.666965303 146.827789729 130.797077367 115.34149587 49.8892250174 c 1
 115.34149587 48.8892250174 115.704163526 50.8211435609 115.34149587 49.8892250174 c 1
 108.088142763 31.2508541472 l 1
 89.4497718924 38.5042072548 l 1
 70.8114010222 45.7575603623 l 1
 78.0647541298 64.3959312326 l 2
 145.86346948 238.612956445 175.788701233 419.318092789 188.840987432 603.611173571 c 0
 189.477058919 612.592249541 197.747913999 622.198242188 208.791015625 622.198242188 c 2
 345.0546875 622.198242188 l 2
 353.638610966 622.198242188 365.0546875 614.304272472 365.0546875 602.198242188 c 2
 365.0546875 54.9453125 l 1
 365.0546875 34.9453125 l 1
 345.0546875 34.9453125 l 1
325.0546875 335.384765625 m 1
 325.0546875 582.198242188 l 1
 227.36655511 582.198242188 l 1
 220.954556735 499.198957442 211.063374748 416.891757712 195.733587775 335.384765625 c 1
 325.0546875 335.384765625 l 1
EndSplineSet
EndChar

StartChar: gy.ccv.1
Encoding: 101 -1 63
Width: 810
VWidth: 0
Flags: W
AnchorPoint: "Above" 405 0 basechar 0
LayerCount: 2
Back
SplineSet
343.956054688 596.703125 m 5
 104 328 l 5
 345 55 l 1029
EndSplineSet
Fore
SplineSet
357.277684437 611.62070459 m 1
 372.195264027 598.29907484 l 1
 358.873634277 583.38149525 l 1
 130.745677415 327.923490707 l 1
 359.993551136 68.2360652887 l 1
 373.229616425 53.2425141525 l 1
 358.236065289 40.0064488638 l 1
 343.242514153 26.7703835751 l 1
 330.006448864 41.7639347113 l 1
 89.0064488638 314.763934711 l 2
 83.1115187795 321.441594101 82.0658434366 333.46445706 89.0824204103 341.32162975 c 2
 329.038475098 610.02475475 l 1
 342.360104847 624.942334339 l 1
 357.277684437 611.62070459 l 1
EndSplineSet
EndChar

StartChar: jy.ccv.1
Encoding: 102 -1 64
Width: 810
VWidth: 0
Flags: W
HStem: 308.571 40<84.3955 200.761 246.972 365.055>
VStem: 204.176 40<34.9453 308.571>
AnchorPoint: "Above" 405 0 basechar 0
LayerCount: 2
Back
SplineSet
104.395507812 328.571289062 m 29
 345.0546875 328.571289062 l 1053
345.0546875 602.198242188 m 21
 276.921875 535.53125 236.627929688 443.956054688 224.17578125 327.47265625 c 1037
104.395507812 602.198242188 m 21
 180.297851562 536.618164062 208.405273438 439.794921875 224.17578125 327.47265625 c 13
 224.17578125 54.9453125 l 1053
EndSplineSet
Fore
SplineSet
89.2618149617 615.273843156 m 1
 102.337415931 630.407536007 l 1
 117.471108781 617.331935038 l 2
 173.786979301 568.674686713 204.971973286 504.729097666 224.135637349 432.58164133 c 1
 245.44647464 505.876207542 280.980926419 567.484643594 331.067161172 616.493315017 c 2
 345.362234002 630.480841346 l 1
 359.34976033 616.185768516 l 1
 373.337286658 601.890695686 l 1
 359.042213828 587.903169358 l 2
 299.275587169 529.42237154 261.655157862 450.374614923 246.97177251 348.571289062 c 1
 345.0546875 348.571289062 l 1
 365.0546875 348.571289062 l 1
 365.0546875 328.571289062 l 1
 365.0546875 308.571289062 l 1
 345.0546875 308.571289062 l 1
 244.17578125 308.571289062 l 1
 244.17578125 54.9453125 l 1
 244.17578125 34.9453125 l 1
 224.17578125 34.9453125 l 1
 204.17578125 34.9453125 l 1
 204.17578125 54.9453125 l 1
 204.17578125 308.571289062 l 1
 104.395507812 308.571289062 l 1
 84.3955078125 308.571289062 l 1
 84.3955078125 328.571289062 l 1
 84.3955078125 348.571289062 l 1
 104.395507812 348.571289062 l 1
 200.760882166 348.571289062 l 1
 184.548408853 448.514054183 156.267351058 530.94956981 91.3199068436 587.064549337 c 2
 76.1862139928 600.140150306 l 1
 89.2618149617 615.273843156 l 1
EndSplineSet
EndChar

StartChar: xy.ccv.1
Encoding: 103 -1 65
Width: 810
VWidth: 0
Flags: W
VStem: 205.348 40<345.93 620.48>
AnchorPoint: "Above" 405 0 basechar 0
LayerCount: 2
Back
SplineSet
104.395507812 54.9453125 m 21
 172.528320312 121.612304688 212.822265625 213.1875 225.274414062 329.670898438 c 1037
345.0546875 54.9453125 m 21
 269.15234375 120.525390625 241.044921875 217.348632812 225.274414062 329.670898438 c 13
 225.274414062 602.198242188 l 1053
EndSplineSet
Fore
SplineSet
360.26171875 40.15234375 m 1
 347.186523438 25.0185546875 l 1
 332.052734375 38.09375 l 2
 275.736328125 86.751953125 244.551757812 150.697265625 225.387695312 222.844726562 c 1
 204.077148438 149.549804688 168.54296875 87.94140625 118.456054688 38.9326171875 c 2
 104.161132812 24.9453125 l 1
 90.173828125 39.240234375 l 1
 76.1865234375 53.53515625 l 1
 90.4814453125 67.5234375 l 2
 154.518554688 130.182617188 193.131835938 216.453125 205.34765625 329.02734375 c 1
 205.34765625 600.48046875 l 1
 205.34765625 620.48046875 l 1
 225.34765625 620.48046875 l 1
 245.34765625 620.48046875 l 1
 245.34765625 600.48046875 l 1
 245.34765625 345.9296875 l 1
 247.360351562 345.713867188 l 1
 245.498046875 328.296875 l 1
 261.162109375 218.69140625 288.66796875 128.44140625 358.203125 68.361328125 c 2
 373.336914062 55.2861328125 l 1
 360.26171875 40.15234375 l 1
EndSplineSet
EndChar

StartChar: iy.ccv.1
Encoding: 104 -1 66
Width: 810
VWidth: 0
Flags: W
HStem: 34.9453 40<124.396 365.055>
VStem: 84.3955 40<74.9453 622.198>
AnchorPoint: "Above" 405 0 basechar 0
LayerCount: 2
Back
SplineSet
104.395507812 602.198242188 m 29
 104.395507812 54.9453125 l 29
 345.0546875 54.9453125 l 1053
EndSplineSet
Fore
SplineSet
104.395507812 622.198242188 m 1
 124.395507812 622.198242188 l 1
 124.395507812 602.198242188 l 1
 124.395507812 74.9453125 l 1
 345.0546875 74.9453125 l 1
 365.0546875 74.9453125 l 1
 365.0546875 54.9453125 l 1
 365.0546875 34.9453125 l 1
 345.0546875 34.9453125 l 1
 104.395507812 34.9453125 l 2
 95.8115843464 34.9453125 84.3955078125 42.8392822156 84.3955078125 54.9453125 c 2
 84.3955078125 602.198242188 l 1
 84.3955078125 622.198242188 l 1
 104.395507812 622.198242188 l 1
EndSplineSet
EndChar

StartChar: ry.ccv.1
Encoding: 105 -1 67
Width: 810
VWidth: 0
Flags: W
VStem: 78.0538 292.244
AnchorPoint: "Above" 405 0 basechar 0
LayerCount: 2
Back
SplineSet
104.395507812 54.9453125 m 29
 343.956054688 602.198242188 l 1053
104.395507812 602.198242188 m 29
 343.956054688 54.9453125 l 1053
EndSplineSet
Fore
SplineSet
96.3752705963 620.519699417 m 1
 114.696727825 628.539936633 l 1
 122.716965042 610.218479404 l 1
 224.17578125 378.445613892 l 1
 325.634597458 610.218479404 l 1
 333.654834675 628.539936633 l 1
 351.976291904 620.519699417 l 1
 370.297749133 612.4994622 l 1
 362.277511917 594.178004971 l 1
 246.008105775 328.571777344 l 1
 362.277511917 62.9655497162 l 1
 370.297749133 44.6440924871 l 1
 351.976291904 36.6238552709 l 1
 333.654834675 28.6036180548 l 1
 325.634597458 46.9250752838 l 1
 224.17578125 278.697940795 l 1
 122.716965042 46.9250752838 l 1
 114.696727825 28.6036180548 l 1
 96.3752705963 36.6238552709 l 1
 78.0538133673 44.6440924871 l 1
 86.0740505834 62.9655497162 l 1
 202.343456725 328.571777344 l 1
 86.0740505834 594.178004971 l 1
 78.0538133673 612.4994622 l 1
 96.3752705963 620.519699417 l 1
EndSplineSet
EndChar

StartChar: my.ccv.1
Encoding: 112 -1 68
Width: 810
VWidth: 0
Flags: W
HStem: 34.9453 40<124.396 325.055> 582.198 40<124.396 325.055>
VStem: 84.3955 40<74.9453 582.198> 325.055 40<74.9453 582.198>
AnchorPoint: "Above" 405 0 basechar 0
LayerCount: 2
Back
SplineSet
104.395507812 602.198242188 m 5
 345.0546875 602.198242188 l 5
 345.0546875 54.9453125 l 5
 104.395507812 54.9453125 l 5
 104.395507812 602.198242188 l 5
EndSplineSet
Fore
SplineSet
104.395507812 622.198242188 m 2
 345.0546875 622.198242188 l 2
 357.160717784 622.198242188 365.0546875 610.782165654 365.0546875 602.198242188 c 2
 365.0546875 54.9453125 l 2
 365.0546875 42.8392822156 353.638610966 34.9453125 345.0546875 34.9453125 c 2
 104.395507812 34.9453125 l 2
 92.2894775281 34.9453125 84.3955078125 46.3613890339 84.3955078125 54.9453125 c 2
 84.3955078125 602.198242188 l 2
 84.3955078125 614.304272472 95.8115843464 622.198242188 104.395507812 622.198242188 c 2
124.395507812 582.198242188 m 1
 124.395507812 74.9453125 l 1
 325.0546875 74.9453125 l 1
 325.0546875 582.198242188 l 1
 124.395507812 582.198242188 l 1
EndSplineSet
EndChar

StartChar: by.ccv.1
Encoding: 113 -1 69
Width: 810
VWidth: 0
Flags: W
HStem: 34.9453 40<124.396 365.055> 582.198 40<124.396 365.055>
VStem: 84.3955 40<74.9453 582.198>
AnchorPoint: "Above" 405 0 basechar 0
LayerCount: 2
Back
SplineSet
345.0546875 602.198242188 m 29
 104.395507812 602.198242188 l 29
 104.395507812 54.9453125 l 29
 345.0546875 54.9453125 l 1053
EndSplineSet
Fore
SplineSet
365.0546875 602.198242188 m 1
 365.0546875 582.198242188 l 1
 345.0546875 582.198242188 l 1
 124.395507812 582.198242188 l 1
 124.395507812 74.9453125 l 1
 345.0546875 74.9453125 l 1
 365.0546875 74.9453125 l 1
 365.0546875 54.9453125 l 1
 365.0546875 34.9453125 l 1
 345.0546875 34.9453125 l 1
 104.395507812 34.9453125 l 2
 95.8115843464 34.9453125 84.3955078125 42.8392822156 84.3955078125 54.9453125 c 2
 84.3955078125 602.198242188 l 2
 84.3955078125 610.782165654 92.2894775281 622.198242188 104.395507812 622.198242188 c 2
 345.0546875 622.198242188 l 1
 365.0546875 622.198242188 l 1
 365.0546875 602.198242188 l 1
EndSplineSet
EndChar

StartChar: py.ccv.1
Encoding: 114 -1 70
Width: 810
VWidth: 0
Flags: W
HStem: 34.9453 40<84.3955 325.055> 582.198 40<84.3955 325.055>
VStem: 325.055 40<74.9453 582.198>
AnchorPoint: "Above" 405 0 basechar 0
LayerCount: 2
Back
SplineSet
104.395507812 602.198242188 m 29
 345.0546875 602.198242188 l 29
 345.0546875 54.9453125 l 29
 104.395507812 54.9453125 l 1053
EndSplineSet
Fore
SplineSet
84.3955078125 602.198242188 m 1
 84.3955078125 622.198242188 l 1
 104.395507812 622.198242188 l 1
 345.0546875 622.198242188 l 2
 357.160717784 622.198242188 365.0546875 610.782165654 365.0546875 602.198242188 c 2
 365.0546875 54.9453125 l 2
 365.0546875 42.8392822156 353.638610966 34.9453125 345.0546875 34.9453125 c 2
 104.395507812 34.9453125 l 1
 84.3955078125 34.9453125 l 1
 84.3955078125 54.9453125 l 1
 84.3955078125 74.9453125 l 1
 104.395507812 74.9453125 l 1
 325.0546875 74.9453125 l 1
 325.0546875 582.198242188 l 1
 104.395507812 582.198242188 l 1
 84.3955078125 582.198242188 l 1
 84.3955078125 602.198242188 l 1
EndSplineSet
EndChar

StartChar: vy.ccv.1
Encoding: 115 -1 71
Width: 810
VWidth: 0
Flags: W
HStem: 34.9453 40<124.396 223.444>
VStem: 84.3955 40<74.9453 622.198>
AnchorPoint: "Above" 405 0 basechar 0
LayerCount: 2
Back
SplineSet
104.395507812 602.198242188 m 29
 104.395507812 54.9453125 l 29
 240.659179688 54.9453125 l 21
 253.796875 240.443359375 283.966796875 423.26171875 352.747070312 600 c 1037
EndSplineSet
Fore
SplineSet
104.395507812 622.198242188 m 1
 124.395507812 622.198242188 l 1
 124.395507812 602.198242188 l 1
 124.395507812 74.9453125 l 1
 222.083647227 74.9453125 l 1
 236.074727997 256.050220878 266.630933478 433.862004353 334.108712988 607.253387914 c 2
 341.362100902 625.891745239 l 1
 360.000458227 618.638357325 l 1
 378.638815552 611.38496941 l 1
 371.385427637 592.746612086 l 2
 303.586737849 418.530615184 273.661493371 237.824481677 260.609207356 53.5323737149 c 0
 259.973133413 44.5513103386 251.702283074 34.9453125 240.659179688 34.9453125 c 2
 104.395507812 34.9453125 l 2
 95.8115843464 34.9453125 84.3955078125 42.8392822156 84.3955078125 54.9453125 c 2
 84.3955078125 602.198242188 l 1
 84.3955078125 622.198242188 l 1
 104.395507812 622.198242188 l 1
EndSplineSet
EndChar

StartChar: fy.ccv.1
Encoding: 116 -1 72
Width: 810
VWidth: 0
Flags: W
HStem: 582.198 40<226.006 325.055>
VStem: 325.055 40<34.9453 582.198>
AnchorPoint: "Above" 405 0 basechar 0
LayerCount: 2
Back
SplineSet
345.0546875 54.9453125 m 5
 345.0546875 602.198242188 l 5
 208.791015625 602.198242188 l 5
 195.653320312 416.69921875 165.483398438 233.881835938 96.703125 57.142578125 c 1029
EndSplineSet
Fore
SplineSet
345.0546875 34.9453125 m 1
 325.0546875 34.9453125 l 1
 325.0546875 54.9453125 l 1
 325.0546875 582.198242188 l 1
 227.36655511 582.198242188 l 1
 213.375459851 401.092316797 182.819268147 223.281548064 115.34149587 49.8892250174 c 1
 115.34149587 48.8892250174 115.704163526 50.8211435609 115.34149587 49.8892250174 c 1
 108.088142763 31.2508541472 l 1
 89.4497718924 38.5042072548 l 1
 70.8114010222 45.7575603623 l 1
 78.0647541298 64.3959312326 l 2
 145.86346948 238.612956445 175.788701233 419.318092789 188.840987432 603.611173571 c 0
 189.477058919 612.592249541 197.747913999 622.198242188 208.791015625 622.198242188 c 2
 345.0546875 622.198242188 l 2
 353.638610966 622.198242188 365.0546875 614.304272472 365.0546875 602.198242188 c 2
 365.0546875 54.9453125 l 1
 365.0546875 34.9453125 l 1
 345.0546875 34.9453125 l 1
EndSplineSet
EndChar

StartChar: ky.ccv.1
Encoding: 117 -1 73
Width: 810
VWidth: 0
Flags: W
AnchorPoint: "Above" 405 0 basechar 0
LayerCount: 2
Back
SplineSet
104.395507812 602.198242188 m 29
 343.956054688 326.374023438 l 29
 104.395507812 54.9453125 l 1053
EndSplineSet
Fore
SplineSet
91.2808700397 617.298118879 m 1
 106.380746731 630.412756651 l 1
 119.495384504 615.31287996 l 1
 359.055931379 339.48866121 l 2
 365.992434261 331.502139584 364.560990231 319.495811366 358.951040447 313.139583439 c 2
 119.390493572 41.7108725012 l 1
 106.156053573 26.715886742 l 1
 91.1610678137 39.9503267408 l 1
 76.1660820545 53.1847667396 l 1
 89.4005220533 68.1797524988 l 1
 317.373865652 326.479842343 l 1
 89.2956311214 589.083604415 l 1
 76.1809933485 604.183481106 l 1
 91.2808700397 617.298118879 l 1
EndSplineSet
EndChar

StartChar: cy.ccv.1
Encoding: 118 -1 74
Width: 810
VWidth: 0
Flags: W
HStem: 308.571 40<83.2969 201.38 247.591 363.956>
VStem: 204.176 40<348.571 622.198>
AnchorPoint: "Above" 405 0 basechar 0
LayerCount: 2
Back
SplineSet
343.956054688 328.571289062 m 29
 103.296875 328.571289062 l 1053
103.296875 54.9453125 m 21
 171.430664062 121.612304688 211.72265625 213.186523438 224.17578125 329.669921875 c 1037
343.956054688 54.9453125 m 21
 268.053710938 120.5234375 239.946289062 217.348632812 224.17578125 329.669921875 c 13
 224.17578125 602.198242188 l 1053
EndSplineSet
Fore
SplineSet
359.089940188 41.869934507 m 1
 346.014562195 26.7360490066 l 1
 330.880676695 39.8114269995 l 1
 331.63737097 39.1576580999 330.880676695 38.8114269995 330.880676695 39.8114269995 c 1
 274.564449738 88.4675341558 243.379434747 152.41384473 224.215801932 224.561579135 c 1
 202.905179208 151.267186099 167.371431577 89.6589870211 117.284298906 40.6501394518 c 1
 117.284298906 39.6501394518 116.569540253 39.9507682565 117.284298906 40.6501394518 c 1
 102.989125858 26.6627155459 l 1
 89.0017019518 40.9578885942 l 1
 75.0142780459 55.2530616424 l 1
 89.3094510942 69.2404855482 l 1
 88.5946924418 68.541114353 89.3094510942 68.2404855482 89.3094510942 69.2404855482 c 1
 149.076793511 127.721145508 186.695655945 206.767880088 201.379625117 308.571289062 c 1
 103.296875 308.571289062 l 1
 83.296875 308.571289062 l 1
 83.296875 328.571289062 l 1
 83.296875 348.571289062 l 1
 103.296875 348.571289062 l 1
 204.17578125 348.571289062 l 1
 204.17578125 602.198242188 l 1
 204.17578125 622.198242188 l 1
 224.17578125 622.198242188 l 1
 244.17578125 622.198242188 l 1
 244.17578125 602.198242188 l 1
 244.17578125 348.571289062 l 1
 343.956054688 348.571289062 l 1
 363.956054688 348.571289062 l 1
 363.956054688 328.571289062 l 1
 363.956054688 308.571289062 l 1
 343.956054688 308.571289062 l 1
 247.590709097 308.571289062 l 1
 263.803208141 208.629097309 292.084383458 126.19216503 357.03143268 70.0791980005 c 2
 372.165318181 57.0038200075 l 1
 359.089940188 41.869934507 l 1
EndSplineSet
EndChar

StartChar: yhy.ccv.1
Encoding: 119 -1 75
Width: 810
VWidth: 0
Flags: W
VStem: 84 40<35.092 46.9363 149.999 622> 325 40<35 507.001 610.064 619.444>
AnchorPoint: "Above" 405 0 basechar 0
LayerCount: 2
Back
SplineSet
104 602 m 29
 104 55 l 29
 345 602 l 29
 345 55 l 1053
EndSplineSet
Fore
SplineSet
104 622 m 1
 124 622 l 1
 124 602 l 1
 124 149.998954401 l 1
 326.697648516 610.063741696 l 2
 331.33281751 620.584229 344.350438335 625.059564488 354.474834302 619.613276667 c 0
 361.077942659 616.061219958 365 608.650704428 365 602 c 2
 365 55 l 1
 365 35 l 1
 345 35 l 1
 325 35 l 1
 325 55 l 1
 325 507.001045599 l 1
 122.302351484 46.9362583039 l 2
 119.496211539 40.5671356891 112.941891456 35.641883191 105.569141709 35.0616501611 c 0
 94.108256122 34.1596821577 84 43.5036769046 84 55 c 2
 84 602 l 1
 84 622 l 1
 104 622 l 1
EndSplineSet
EndChar

StartChar: uy.ccv.1
Encoding: 120 -1 76
Width: 810
VWidth: 0
Flags: W
HStem: 34.9453 40<84.3955 325.055>
VStem: 325.055 40<74.9453 622.198>
AnchorPoint: "Above" 405 0 basechar 0
LayerCount: 2
Back
SplineSet
345.0546875 602.198242188 m 29
 345.0546875 54.9453125 l 29
 104.395507812 54.9453125 l 1053
EndSplineSet
Fore
SplineSet
345.0546875 622.198242188 m 1
 365.0546875 622.198242188 l 1
 365.0546875 602.198242188 l 1
 365.0546875 54.9453125 l 2
 365.0546875 42.8392822156 353.638610966 34.9453125 345.0546875 34.9453125 c 2
 104.395507812 34.9453125 l 1
 84.3955078125 34.9453125 l 1
 84.3955078125 54.9453125 l 1
 84.3955078125 74.9453125 l 1
 104.395507812 74.9453125 l 1
 325.0546875 74.9453125 l 1
 325.0546875 602.198242188 l 1
 325.0546875 622.198242188 l 1
 345.0546875 622.198242188 l 1
EndSplineSet
EndChar

StartChar: ly.ccv.1
Encoding: 121 -1 77
Width: 810
VWidth: 0
Flags: W
HStem: 34.9453 40<124.396 363.956> 308.571 40<124.396 323.956> 582.198 40<84.3955 323.956>
VStem: 84.3955 40<74.9453 308.571> 323.956 40<348.571 582.198>
CounterMasks: 1 e0
AnchorPoint: "Above" 405 0 basechar 0
LayerCount: 2
Back
SplineSet
104.395507812 602.198242188 m 29
 343.956054688 602.198242188 l 29
 343.956054688 328.571289062 l 29
 104.395507812 328.571289062 l 29
 104.395507812 54.9453125 l 29
 343.956054688 54.9453125 l 1053
EndSplineSet
Fore
SplineSet
84.3955078125 602.198242188 m 1
 84.3955078125 622.198242188 l 1
 104.395507812 622.198242188 l 1
 343.956054688 622.198242188 l 2
 356.062084972 622.198242188 363.956054688 610.782165654 363.956054688 602.198242188 c 2
 363.956054688 328.571289062 l 2
 363.956054688 316.465258778 352.539978154 308.571289062 343.956054688 308.571289062 c 2
 124.395507812 308.571289062 l 1
 124.395507812 74.9453125 l 1
 343.956054688 74.9453125 l 1
 363.956054688 74.9453125 l 1
 363.956054688 54.9453125 l 1
 363.956054688 34.9453125 l 1
 343.956054688 34.9453125 l 1
 104.395507812 34.9453125 l 2
 95.8115843464 34.9453125 84.3955078125 42.8392822156 84.3955078125 54.9453125 c 2
 84.3955078125 328.571289062 l 2
 84.3955078125 337.155212529 92.2894775281 348.571289062 104.395507812 348.571289062 c 2
 323.956054688 348.571289062 l 1
 323.956054688 582.198242188 l 1
 104.395507812 582.198242188 l 1
 84.3955078125 582.198242188 l 1
 84.3955078125 602.198242188 l 1
EndSplineSet
EndChar

StartChar: denpabu.cvc.1
Encoding: 63 -1 78
Width: 810
VWidth: 0
Flags: W
HStem: 225.055 40<302.272 508.716> 587.692 40<302.272 508.716>
VStem: 145.934 40<361.053 491.695> 625.055 40<361.053 491.695>
AnchorPoint: "Above" 405 0 basechar 0
LayerCount: 2
Back
SplineSet
165.93359375 426.374023438 m 0
 165.93359375 526.374023438 273.625976562 607.692382812 405.494140625 607.692382812 c 0
 537.362304688 607.692382812 645.0546875 526.374023438 645.0546875 426.374023438 c 0
 645.0546875 326.374023438 537.362304688 245.0546875 405.494140625 245.0546875 c 0
 273.625976562 245.0546875 165.93359375 326.374023438 165.93359375 426.374023438 c 0
EndSplineSet
Fore
SplineSet
145.93359375 426.374023438 m 0
 145.93359375 542.128111891 267.344196965 627.692382812 405.494140625 627.692382812 c 0
 543.644840161 627.692382812 665.0546875 542.128626944 665.0546875 426.374023438 c 0
 665.0546875 310.620027042 543.644222881 225.0546875 405.494140625 225.0546875 c 0
 267.343302508 225.0546875 145.93359375 310.619512024 145.93359375 426.374023438 c 0
185.93359375 426.374023438 m 0
 185.93359375 342.128534851 279.908650617 265.0546875 405.494140625 265.0546875 c 0
 531.080386494 265.0546875 625.0546875 342.128019833 625.0546875 426.374023438 c 0
 625.0546875 510.619419931 531.079769214 587.692382812 405.494140625 587.692382812 c 0
 279.90775616 587.692382812 185.93359375 510.619934984 185.93359375 426.374023438 c 0
EndSplineSet
EndChar

StartChar: ybu.cv
Encoding: 47 -1 79
Width: 0
VWidth: 0
Flags: W
HStem: -114 40<112 385 425 699>
VStem: 385 40<-266 -114>
AnchorPoint: "Above" 405 0 mark 0
LayerCount: 2
Back
SplineSet
405 -94 m 5
 405 -246 l 1029
679 -94 m 5
 132 -94 l 1029
EndSplineSet
Fore
SplineSet
699 -94 m 1
 699 -114 l 1
 679 -114 l 1
 425 -114 l 1
 425 -246 l 1
 425 -266 l 1
 405 -266 l 1
 385 -266 l 1
 385 -246 l 1
 385 -114 l 1
 132 -114 l 1
 112 -114 l 1
 112 -94 l 1
 112 -74 l 1
 132 -74 l 1
 385 -74 l 1
 405 -74 l 1
 425 -74 l 1
 679 -74 l 1
 699 -74 l 1
 699 -94 l 1
EndSplineSet
Substitution2: "Single Substitution lookup 73 subtable" ybu.cvc
Substitution2: "Single Substitution lookup 69 subtable" ybu.ccv
EndChar

StartChar: eibu.cv
Encoding: 58 -1 80
Width: 0
VWidth: 0
Flags: W
HStem: -113.428 40.0217<152 385.078 425.078 698.978>
VStem: 112 40<-362.857 -113.428> 385.078 40.0001<-113.923 -113.724 -73.6809 53.9891>
AnchorPoint: "Above" 405 0 mark 0
LayerCount: 2
Back
SplineSet
405.494140625 34.06640625 m 5
 405 -94 l 1029
679 -94 m 5
 132 -93.40625 l 5
 132 -342.857421875 l 1029
EndSplineSet
Fore
SplineSet
698.999988218 -94.0217093108 m 1
 698.978278907 -114.021697528 l 1
 678.978290689 -113.999988218 l 1
 424.924043526 -113.724220925 l 2
 424.924043526 -113.841820612 424.922682261 -113.959420299 424.922682261 -114.077019986 c 2
 404.922831137 -113.999851124 l 1
 384.922980014 -113.922682261 l 2
 384.922980014 -113.842055553 384.923913301 -113.761428844 384.923913301 -113.680802136 c 2
 152 -113.427971106 l 1
 152 -342.857421875 l 1
 152 -362.857421875 l 1
 132 -362.857421875 l 1
 112 -362.857421875 l 1
 112 -342.857421875 l 1
 112 -93.40625 l 2
 112 -84.7821626984 119.922694462 -73.3931287109 132.021709311 -73.4062617824 c 2
 385.07825162 -73.6809461004 l 1
 385.494289501 34.1435751128 l 1
 385.571458364 54.1434262364 l 1
 405.571309488 54.0662573736 l 1
 425.571160611 53.9890885108 l 1
 425.493991749 33.9892373872 l 1
 425.078381845 -73.724364889 l 1
 679.021709311 -74.0000117824 l 1
 699.021697528 -74.0217210932 l 1
 698.999988218 -94.0217093108 l 1
EndSplineSet
Substitution2: "Single Substitution lookup 73 subtable" eibu.cvc
Substitution2: "Single Substitution lookup 69 subtable" eibu.ccv
EndChar

StartChar: oibu.cv
Encoding: 59 -1 81
Width: 0
VWidth: 0
Flags: W
HStem: -114 40<112 385 425 659>
VStem: 385 40<-74 54> 659 40<-363 -114>
AnchorPoint: "Above" 405 0 mark 0
LayerCount: 2
Back
SplineSet
132 -94 m 1053,1,-1
405 34 m 5,3,-1
 405 -94 l 1053
132 -94 m 5,5,-1
 679 -94 l 5,6,-1
 679 -343 l 1053
EndSplineSet
Fore
SplineSet
405 54 m 1
 425 54 l 1
 425 34 l 1
 425 -74 l 1
 679 -74 l 2
 691.106030284 -74 699 -85.4160765339 699 -94 c 2
 699 -343 l 1
 699 -363 l 1
 679 -363 l 1
 659 -363 l 1
 659 -343 l 1
 659 -114 l 1
 425 -114 l 1
 405 -114 l 1
 385 -114 l 1
 152 -114 l 1
 132 -114 l 1
 112 -114 l 1
 112 -94 l 1
 112 -74 l 1
 132 -74 l 1
 152 -74 l 1
 385 -74 l 1
 385 34 l 1
 385 54 l 1
 405 54 l 1
EndSplineSet
Substitution2: "Single Substitution lookup 73 subtable" oibu.cvc
Substitution2: "Single Substitution lookup 69 subtable" oibu.ccv
EndChar

StartChar: aibu.cv
Encoding: 60 -1 82
Width: 0
VWidth: 0
Flags: WO
HStem: -113.406 40<112.022 385 425 698.978>
VStem: 385 40<-114 -113.724 -73.6809 53>
AnchorPoint: "Above" 405 0 mark 0
LayerCount: 2
Back
SplineSet
405 33 m 5
 405 -94 l 1053
132 -93.40625 m 13
 679 -94 l 1053
EndSplineSet
Fore
SplineSet
112.000011782 -93.3845406892 m 1
 112.021721093 -73.3845524716 l 1
 132.021709311 -73.4062617824 l 1
 385 -73.680861161 l 1
 385 33 l 1
 385 53 l 1
 405 53 l 1
 425 53 l 1
 425 33 l 1
 425 -73.7242798081 l 1
 679.021709311 -74.0000117824 l 1
 699.021697528 -74.0217210932 l 1
 698.999988218 -94.0217093108 l 1
 698.978278907 -114.021697528 l 1
 678.978290689 -113.999988218 l 1
 425 -113.724303373 l 1
 425 -114 l 1
 405 -114 l 1
 385 -114 l 1
 385 -113.680884726 l 1
 131.978290689 -113.406238218 l 1
 111.978302472 -113.384528907 l 1
 112.000011782 -93.3845406892 l 1
EndSplineSet
Substitution2: "Single Substitution lookup 73 subtable" aibu.cvc
Substitution2: "Single Substitution lookup 69 subtable" aibu.ccv
EndChar

StartChar: aubu.cv
Encoding: 61 -1 83
Width: 0
VWidth: 0
Flags: W
HStem: -113.406 40<152 659>
VStem: 112 40<-363 -113.406> 659 40<-362.857 -113.406>
AnchorPoint: "Above" 405 0 mark 0
LayerCount: 2
Back
SplineSet
679 -342.857421875 m 25
 679 -93.40625 l 1
 132 -94 l 9
 132 -343 l 1025
EndSplineSet
Fore
SplineSet
679 -362.857421875 m 1
 659 -362.857421875 l 1
 659 -342.857421875 l 1
 659 -113.40625 l 1
 152 -113.40625 l 1
 152 -343 l 1
 152 -363 l 1
 132 -363 l 1
 112 -363 l 1
 112 -343 l 1
 112 -113.40625 l 1
 112 -93.40625 l 2
 112 -84.8223265339 119.893969716 -73.40625 132 -73.40625 c 2
 152 -73.40625 l 1
 679 -73.40625 l 2
 687.583923466 -73.40625 699 -81.3002197156 699 -93.40625 c 2
 699 -342.857421875 l 1
 699 -362.857421875 l 1
 679 -362.857421875 l 1
EndSplineSet
Substitution2: "Single Substitution lookup 73 subtable" aubu.cvc
Substitution2: "Single Substitution lookup 69 subtable" aubu.ccv
EndChar

StartChar: ubu.cv
Encoding: 45 -1 84
Width: 0
VWidth: 0
Flags: W
HStem: -113.406 40<112 385 425 659>
VStem: 385 40<-266 -113.406> 659 40<-362.857 -113.406>
AnchorPoint: "Above" 405 0 mark 0
LayerCount: 2
Back
SplineSet
405 -94 m 29
 405 -246 l 1029
132 -93.40625 m 5
 679 -93.40625 l 5
 679 -342.857421875 l 1053
EndSplineSet
Fore
SplineSet
112 -93.40625 m 1
 112 -73.40625 l 1
 132 -73.40625 l 1
 679 -73.40625 l 2
 691.106030284 -73.40625 699 -84.8223265339 699 -93.40625 c 2
 699 -342.857421875 l 1
 699 -362.857421875 l 1
 679 -362.857421875 l 1
 659 -362.857421875 l 1
 659 -342.857421875 l 1
 659 -113.40625 l 1
 425 -113.40625 l 1
 425 -246 l 1
 425 -266 l 1
 405 -266 l 1
 385 -266 l 1
 385 -246 l 1
 385 -113.40625 l 1
 132 -113.40625 l 1
 112 -113.40625 l 1
 112 -93.40625 l 1
EndSplineSet
Substitution2: "Single Substitution lookup 73 subtable" ubu.cvc
Substitution2: "Single Substitution lookup 69 subtable" ubu.ccv
EndChar

StartChar: abu.cv
Encoding: 46 -1 85
Width: 0
VWidth: 0
Flags: W
HStem: -113.406 40<112 699>
AnchorPoint: "Above" 405 0 mark 0
LayerCount: 2
Back
SplineSet
132 -93.40625 m 5
 679 -93.40625 l 1029
EndSplineSet
Fore
SplineSet
112 -93.40625 m 1
 112 -73.40625 l 1
 132 -73.40625 l 1
 679 -73.40625 l 1
 699 -73.40625 l 1
 699 -93.40625 l 1
 699 -113.40625 l 1
 679 -113.40625 l 1
 132 -113.40625 l 1
 112 -113.40625 l 1
 112 -93.40625 l 1
EndSplineSet
Substitution2: "Single Substitution lookup 73 subtable" abu.cvc
Substitution2: "Single Substitution lookup 69 subtable" abu.ccv
EndChar

StartChar: eibu.ccv
Encoding: 122 -1 104
Width: 0
VWidth: 0
Flags: W
HStem: -114 40<124 385 425 728>
VStem: 84 40<-363 -114> 385 40<-74 27>
AnchorPoint: "Above" 405 0 mark 0
LayerCount: 2
Back
SplineSet
405 7 m 5
 405 -94 l 1029
104 -343 m 29
 104 -94 l 29
 708 -94 l 1053
EndSplineSet
Fore
SplineSet
104 -363 m 1
 84 -363 l 1
 84 -343 l 1
 84 -94 l 2
 84 -81.8939697156 95.4160765339 -74 104 -74 c 2
 385 -74 l 1
 385 7 l 1
 385 27 l 1
 405 27 l 1
 425 27 l 1
 425 7 l 1
 425 -74 l 1
 708 -74 l 1
 728 -74 l 1
 728 -94 l 1
 728 -114 l 1
 708 -114 l 1
 425 -114 l 1
 405 -114 l 1
 385 -114 l 1
 124 -114 l 1
 124 -343 l 1
 124 -363 l 1
 104 -363 l 1
EndSplineSet
EndChar

StartChar: obu.ccv
Encoding: 107 -1 105
Width: 0
VWidth: 0
Flags: W
HStem: -114 40<84 385 425 688>
VStem: 385 40<-266 -114> 688 40<-363 -114>
AnchorPoint: "Above" 405 1.77636e-15 mark 0
LayerCount: 2
Back
SplineSet
405 -94 m 25
 405 -246 l 1025
708 -343 m 25
 708 -94 l 1
 104 -94 l 1025
EndSplineSet
Fore
SplineSet
708 -363 m 1
 688 -363 l 1
 688 -343 l 1
 688 -114 l 1
 425 -114 l 1
 425 -246 l 1
 425 -266 l 1
 405 -266 l 1
 385 -266 l 1
 385 -246 l 1
 385 -114 l 1
 104 -114 l 1
 84 -114 l 1
 84 -94 l 1
 84 -74 l 1
 104 -74 l 1
 385 -74 l 1
 405 -74 l 1
 425 -74 l 1
 708 -74 l 2
 716.583923466 -74 728 -81.8939697156 728 -94 c 2
 728 -343 l 1
 728 -363 l 1
 708 -363 l 1
EndSplineSet
EndChar

StartChar: oibu.ccv
Encoding: 123 -1 106
Width: 0
VWidth: 0
Flags: W
HStem: -114 40<84 385 425 688>
VStem: 385 40<-74 27> 688 40<-363 -114>
AnchorPoint: "Above" 406 0 mark 0
LayerCount: 2
Back
SplineSet
405 7 m 5
 405 -94 l 1029
104 -94 m 29
 708 -94 l 29
 708 -343 l 1053
EndSplineSet
Fore
SplineSet
84 -94 m 1
 84 -74 l 1
 104 -74 l 1
 385 -74 l 1
 385 7 l 1
 385 27 l 1
 405 27 l 1
 425 27 l 1
 425 7 l 1
 425 -74 l 1
 708 -74 l 2
 720.106030284 -74 728 -85.4160765339 728 -94 c 2
 728 -343 l 1
 728 -363 l 1
 708 -363 l 1
 688 -363 l 1
 688 -343 l 1
 688 -114 l 1
 425 -114 l 1
 405 -114 l 1
 385 -114 l 1
 104 -114 l 1
 84 -114 l 1
 84 -94 l 1
EndSplineSet
EndChar

StartChar: ybu.ccv
Encoding: 111 -1 107
Width: 0
VWidth: 0
Flags: W
HStem: -114 40<84 385 425 728>
VStem: 385 40<-266 -114>
AnchorPoint: "Above" 405 0 mark 0
LayerCount: 2
Back
SplineSet
405 -94 m 29
 405 -246 l 1029
104 -94 m 29
 708 -94 l 1053
EndSplineSet
Fore
SplineSet
84 -94 m 1
 84 -74 l 1
 104 -74 l 1
 385 -74 l 1
 405 -74 l 1
 425 -74 l 1
 708 -74 l 1
 728 -74 l 1
 728 -94 l 1
 728 -114 l 1
 708 -114 l 1
 425 -114 l 1
 425 -246 l 1
 425 -266 l 1
 405 -266 l 1
 385 -266 l 1
 385 -246 l 1
 385 -114 l 1
 104 -114 l 1
 84 -114 l 1
 84 -94 l 1
EndSplineSet
EndChar

StartChar: ebu.cvc
Encoding: 74 -1 108
Width: 0
VWidth: 0
Flags: W
HStem: 110 40<74.949 775.991>
VStem: 35 40<-187.996 109.679>
AnchorPoint: "Above" 405 -0 mark 0
LayerCount: 2
Back
SplineSet
756 130 m 5
 54.9453125 129.669921875 l 5
 55 -168 l 1029
EndSplineSet
Fore
SplineSet
775.999997783 130.009416615 m 1
 776.009414398 110.009418831 l 1
 756.009416615 110.000002217 l 1
 74.9489854795 109.679338003 l 1
 74.9999996625 -167.996325628 l 1
 75.0036740343 -187.996325291 l 1
 55.0036743719 -187.999999662 l 1
 35.0036747094 -188.003674034 l 1
 35.0000003375 -168.003674372 l 1
 34.9453128375 129.666247503 l 2
 34.9434739818 139.675336489 43.572475761 149.66456941 54.9358958855 149.669919658 c 2
 755.990583385 149.999997783 l 1
 775.990581169 150.009414398 l 1
 775.999997783 130.009416615 l 1
405 -13 m 1025
EndSplineSet
EndChar

StartChar: obu.cvc
Encoding: 75 -1 109
Width: 0
VWidth: 0
Flags: W
HStem: 110 40<35 735.067>
VStem: 736.067 39.9998<-187.933 110>
AnchorPoint: "Above" 405 -1 mark 0
LayerCount: 2
Back
SplineSet
55 130 m 29
 755 130 l 5
 756 -168 l 1053
EndSplineSet
Fore
SplineSet
35 130 m 1
 35 150 l 1
 55 150 l 1
 755 150 l 2
 766.386154785 150 774.966678804 139.963273484 774.999887393 130.067113716 c 2
 775.999887393 -167.932886284 l 1
 776.067001109 -187.932773677 l 1
 756.067113716 -187.999887393 l 1
 736.067226323 -188.067001109 l 1
 736.000112607 -168.067113716 l 1
 735.067001487 110 l 1
 55 110 l 1
 35 110 l 1
 35 130 l 1
EndSplineSet
EndChar

StartChar: ibu.cvc
Encoding: 76 -1 110
Width: 0
VWidth: 0
Flags: W
HStem: 110 40<74.0672 385 425 778>
VStem: 35.0001 39.9998<-187.933 110> 385 40<-13 110>
AnchorPoint: "Above" 405 0 mark 0
LayerCount: 2
Back
SplineSet
405 7 m 29
 405 130 l 1053
758 130 m 29
 54 130 l 29
 55 -168 l 1053
EndSplineSet
Fore
SplineSet
778 130 m 1
 778 110 l 1
 758 110 l 1
 425 110 l 1
 425 7 l 1
 425 -13 l 1
 405 -13 l 1
 385 -13 l 1
 385 7 l 1
 385 110 l 1
 74.0672267012 110 l 1
 74.9998873934 -167.932886284 l 1
 75.0670011095 -187.932773677 l 1
 55.0671137161 -187.999887393 l 1
 35.0672263227 -188.067001109 l 1
 35.0001126066 -168.067113716 l 1
 34.0001126066 129.932886284 l 2
 33.9708909814 138.640930593 41.9157645974 150 54 150 c 2
 385 150 l 1
 405 150 l 1
 425 150 l 1
 758 150 l 1
 778 150 l 1
 778 130 l 1
EndSplineSet
EndChar

StartChar: ubu.cvc
Encoding: 77 -1 111
Width: 0
VWidth: 0
Flags: W
HStem: 110 40<36 385 425 736.933>
VStem: 385 40<-13 110> 736 39.9998<-187.933 110>
AnchorPoint: "Above" 405 0 mark 0
LayerCount: 2
Back
SplineSet
405 7 m 29
 405 130 l 1053
56 130 m 29
 757 130 l 29
 756 -168 l 1053
EndSplineSet
Fore
SplineSet
36 130 m 1
 36 150 l 1
 56 150 l 1
 385 150 l 1
 405 150 l 1
 425 150 l 1
 757 150 l 2
 769.084235403 150 777.029109019 138.640930593 776.999887393 129.932886284 c 2
 775.999887393 -168.067113716 l 1
 775.932773677 -188.067001109 l 1
 755.932886284 -187.999887393 l 1
 735.932998891 -187.932773677 l 1
 736.000112607 -167.932886284 l 1
 736.932773299 110 l 1
 425 110 l 1
 425 7 l 1
 425 -13 l 1
 405 -13 l 1
 385 -13 l 1
 385 7 l 1
 385 110 l 1
 56 110 l 1
 36 110 l 1
 36 130 l 1
EndSplineSet
EndChar

StartChar: abu.cvc
Encoding: 78 -1 112
Width: 0
VWidth: 0
Flags: W
HStem: 110 40<35 775>
AnchorPoint: "Above" 405 0 mark 0
LayerCount: 2
Back
SplineSet
55 130 m 29
 755 130 l 1053
EndSplineSet
Fore
SplineSet
35 130 m 1
 35 150 l 1
 55 150 l 1
 755 150 l 1
 775 150 l 1
 775 130 l 1
 775 110 l 1
 755 110 l 1
 55 110 l 1
 35 110 l 1
 35 130 l 1
EndSplineSet
EndChar

StartChar: ybu.cvc
Encoding: 79 -1 113
Width: 0
VWidth: 0
Flags: W
HStem: 110 40<36 385 425 777>
VStem: 385 40<-13 110>
AnchorPoint: "Above" 405 0 mark 0
LayerCount: 2
Back
SplineSet
405 130 m 29
 405 7 l 1029
56 130 m 29
 757 130 l 1053
EndSplineSet
Fore
SplineSet
36 130 m 1
 36 150 l 1
 56 150 l 1
 385 150 l 1
 405 150 l 1
 425 150 l 1
 757 150 l 1
 777 150 l 1
 777 130 l 1
 777 110 l 1
 757 110 l 1
 425 110 l 1
 425 7 l 1
 425 -13 l 1
 405 -13 l 1
 385 -13 l 1
 385 7 l 1
 385 110 l 1
 56 110 l 1
 36 110 l 1
 36 130 l 1
EndSplineSet
EndChar

StartChar: eibu.cvc
Encoding: 90 -1 114
Width: 0
VWidth: 0
Flags: W
HStem: 110 40<75 385 425 775>
VStem: 35 40<-188 110> 385 40<150 273>
AnchorPoint: "Above" 405 0 mark 0
LayerCount: 2
Back
SplineSet
405 130 m 5
 405 253 l 1029
55 -168 m 29
 55 130 l 29
 755 130 l 1053
EndSplineSet
Fore
SplineSet
55 -188 m 1
 35 -188 l 1
 35 -168 l 1
 35 130 l 2
 35 142.106030284 46.4160765339 150 55 150 c 2
 385 150 l 1
 385 253 l 1
 385 273 l 1
 405 273 l 1
 425 273 l 1
 425 253 l 1
 425 150 l 1
 755 150 l 1
 775 150 l 1
 775 130 l 1
 775 110 l 1
 755 110 l 1
 425 110 l 1
 405 110 l 1
 385 110 l 1
 75 110 l 1
 75 -168 l 1
 75 -188 l 1
 55 -188 l 1
EndSplineSet
EndChar

StartChar: oibu.cvc
Encoding: 91 -1 115
Width: 0
VWidth: 0
Flags: W
HStem: 110 40<35 385 425 736>
VStem: 385 40<150 273> 736 40<-188 110>
AnchorPoint: "Above" 405 0 mark 0
LayerCount: 2
Back
SplineSet
405 130 m 5
 405 253 l 1029
756 -168 m 29
 756 130 l 5
 55 130 l 1053
EndSplineSet
Fore
SplineSet
756 -188 m 1
 736 -188 l 1
 736 -168 l 1
 736 110 l 1
 425 110 l 1
 405 110 l 1
 385 110 l 1
 55 110 l 1
 35 110 l 1
 35 130 l 1
 35 150 l 1
 55 150 l 1
 385 150 l 1
 385 253 l 1
 385 273 l 1
 405 273 l 1
 425 273 l 1
 425 253 l 1
 425 150 l 1
 756 150 l 2
 764.583923466 150 776 142.106030284 776 130 c 2
 776 -168 l 1
 776 -188 l 1
 756 -188 l 1
EndSplineSet
EndChar

StartChar: aibu.cvc
Encoding: 92 -1 116
Width: 0
VWidth: 0
Flags: W
HStem: 110 40<35 385 425 777>
VStem: 385 40<150 273>
AnchorPoint: "Above" 405 0 mark 0
LayerCount: 2
Back
SplineSet
405 253 m 5
 405 130 l 1053
55 130 m 29
 757 130 l 1053
EndSplineSet
Fore
SplineSet
35 130 m 1
 35 150 l 1
 55 150 l 1
 385 150 l 1
 385 253 l 1
 385 273 l 1
 405 273 l 1
 425 273 l 1
 425 253 l 1
 425 150 l 1
 757 150 l 1
 777 150 l 1
 777 130 l 1
 777 110 l 1
 757 110 l 1
 425 110 l 1
 405 110 l 1
 385 110 l 1
 55 110 l 1
 35 110 l 1
 35 130 l 1
EndSplineSet
EndChar

StartChar: aubu.cvc
Encoding: 93 -1 117
Width: 0
VWidth: 0
Flags: W
HStem: 110 40<75 735.067>
VStem: 35 40<-188 110> 736.067 39.9998<-187.933 110>
AnchorPoint: "Above" 405 0 mark 0
LayerCount: 2
Back
SplineSet
756 -168 m 25
 755 130 l 25
 55 130 l 25
 55 -168 l 1049
EndSplineSet
Fore
SplineSet
756.067113716 -187.999887393 m 1
 736.067226323 -188.067001109 l 1
 736.000112607 -168.067113716 l 1
 735.067001487 110 l 1
 75 110 l 1
 75 -168 l 1
 75 -188 l 1
 55 -188 l 1
 35 -188 l 1
 35 -168 l 1
 35 130 l 2
 35 138.583923466 42.8939697156 150 55 150 c 2
 755 150 l 2
 764.896215487 150 774.961679035 141.453204393 774.999887393 130.067113716 c 2
 775.999887393 -167.932886284 l 1
 776.067001109 -187.932773677 l 1
 756.067113716 -187.999887393 l 1
EndSplineSet
EndChar

StartChar: ibu.ccv
Encoding: 108 -1 119
Width: 0
VWidth: 0
Flags: W
HStem: -114 40<124 728>
VStem: 84 40<-363 -114>
AnchorPoint: "Above" 405 0 mark 0
LayerCount: 2
Back
SplineSet
708 -94 m 29
 104 -94 l 29
 104 -343 l 1053
EndSplineSet
Fore
SplineSet
728 -94 m 1
 728 -114 l 1
 708 -114 l 1
 124 -114 l 1
 124 -343 l 1
 124 -363 l 1
 104 -363 l 1
 84 -363 l 1
 84 -343 l 1
 84 -94 l 2
 84 -85.4160765339 91.8939697156 -74 104 -74 c 2
 708 -74 l 1
 728 -74 l 1
 728 -94 l 1
EndSplineSet
EndChar

StartChar: ubu.ccv
Encoding: 109 -1 120
Width: 0
VWidth: 0
Flags: W
HStem: -114 40<84 688>
VStem: 688 40<-363 -114>
AnchorPoint: "Above" 405 0 mark 0
LayerCount: 2
Back
SplineSet
104 -94 m 29
 708 -94 l 29
 708 -343 l 1053
EndSplineSet
Fore
SplineSet
84 -94 m 1
 84 -74 l 1
 104 -74 l 1
 708 -74 l 2
 720.106030284 -74 728 -85.4160765339 728 -94 c 2
 728 -343 l 1
 728 -363 l 1
 708 -363 l 1
 688 -363 l 1
 688 -343 l 1
 688 -114 l 1
 104 -114 l 1
 84 -114 l 1
 84 -94 l 1
EndSplineSet
EndChar

StartChar: abu.ccv
Encoding: 110 -1 121
Width: 0
VWidth: 0
Flags: W
HStem: -114 40<84 728>
AnchorPoint: "Above" 405 0 mark 0
LayerCount: 2
Back
SplineSet
104 -94 m 29
 708 -94 l 1053
EndSplineSet
Fore
SplineSet
84 -94 m 1
 84 -74 l 1
 104 -74 l 1
 708 -74 l 1
 728 -74 l 1
 728 -94 l 1
 728 -114 l 1
 708 -114 l 1
 104 -114 l 1
 84 -114 l 1
 84 -94 l 1
EndSplineSet
EndChar

StartChar: aibu.ccv
Encoding: 124 -1 122
Width: 0
VWidth: 0
Flags: W
HStem: -114 40<84 385 425 728>
VStem: 385 40<-115 -114 -74 27>
AnchorPoint: "Above" 405 0 mark 0
LayerCount: 2
Back
SplineSet
405 7 m 29
 405 -95 l 1053
708 -94 m 29
 104 -94 l 1053
EndSplineSet
Fore
SplineSet
728 -94 m 1
 728 -114 l 1
 708 -114 l 1
 425 -114 l 1
 425 -115 l 1
 405 -115 l 1
 385 -115 l 1
 385 -114 l 1
 104 -114 l 1
 84 -114 l 1
 84 -94 l 1
 84 -74 l 1
 104 -74 l 1
 385 -74 l 1
 385 7 l 1
 385 27 l 1
 405 27 l 1
 425 27 l 1
 425 7 l 1
 425 -74 l 1
 708 -74 l 1
 728 -74 l 1
 728 -94 l 1
EndSplineSet
EndChar

StartChar: aubu.ccv
Encoding: 125 -1 123
Width: 0
VWidth: 0
Flags: W
HStem: -114 40<124 688>
VStem: 84 40<-363 -114> 688 40<-363 -114>
AnchorPoint: "Above" 405 0 mark 0
LayerCount: 2
Back
SplineSet
708 -343 m 29
 708 -94 l 29
 104 -94 l 29
 104 -343 l 1053
EndSplineSet
Fore
SplineSet
708 -363 m 1
 688 -363 l 1
 688 -343 l 1
 688 -114 l 1
 124 -114 l 1
 124 -343 l 1
 124 -363 l 1
 104 -363 l 1
 84 -363 l 1
 84 -343 l 1
 84 -94 l 2
 84 -85.4160765339 91.8939697156 -74 104 -74 c 2
 708 -74 l 2
 716.583923466 -74 728 -81.8939697156 728 -94 c 2
 728 -343 l 1
 728 -363 l 1
 708 -363 l 1
EndSplineSet
EndChar

StartChar: denpabu.ccv.1
Encoding: 127 -1 143
Width: 810
VWidth: 0
Flags: W
HStem: 35 40<191.384 256.616> 581 40<191.384 256.616>
VStem: 84 40<186.809 469.191> 324 40<186.809 469.191>
AnchorPoint: "Above" 405 0 basechar 0
LayerCount: 2
Back
SplineSet
104 328 m 4
 104 479 158 601 224 601 c 4
 290 601 344 479 344 328 c 4
 344 177 290 55 224 55 c 4
 158 55 104 177 104 328 c 4
EndSplineSet
Fore
SplineSet
124 328 m 0
 124 174.632067835 181.755233386 75 224 75 c 0
 266.249597397 75 324 174.651340501 324 328 c 0
 324 481.367932165 266.244766614 581 224 581 c 0
 181.750402603 581 124 481.348659499 124 328 c 0
84 328 m 0
 84 476.651340501 134.249597397 621 224 621 c 0
 313.755233386 621 364 476.632067835 364 328 c 0
 364 179.348659499 313.750402603 35 224 35 c 0
 134.244766614 35 84 179.367932165 84 328 c 0
EndSplineSet
EndChar

StartChar: .notdef
Encoding: 490 -1 145
Width: 1000
VWidth: 0
LayerCount: 2
Back
SplineSet
377 602 m 29
 377 602 104.002929688 428.009765625 104 129 c 4
 103.997070312 -168.991210938 377 -343 377 -343 c 1053
EndSplineSet
EndChar

StartChar: colon
Encoding: 492 58 147
Width: 326
VWidth: 0
Flags: W
HStem: -41 96<134.385 215.615> 205 96<134.385 215.615>
VStem: 126 98<-32.668 46.668 213.332 292.668>
LayerCount: 2
Back
SplineSet
175 7 m 1049
EndSplineSet
Fore
SplineSet
126 7 m 4
 126 33 148 55 175 55 c 4
 202 55 224 33 224 7 c 4
 224 -19 202 -41 175 -41 c 4
 148 -41 126 -19 126 7 c 4
126 253 m 0
 126 279 148 301 175 301 c 0
 202 301 224 279 224 253 c 0
 224 227 202 205 175 205 c 0
 148 205 126 227 126 253 c 0
EndSplineSet
EndChar

StartChar: question
Encoding: 493 63 148
Width: 698
VWidth: 0
Flags: W
HStem: -216 96<308.385 389.615> 582 40<233.564 462.052>
VStem: 99 40<339.723 501.344> 300 98<-207.668 -128.332> 329 40<-13.875 5.87598 5.92068 101.452> 559 40<360.551 500.036>
LayerCount: 2
Back
SplineSet
212 253 m 29
 212 253 119 299 119 427 c 7
 119 510 178 602 349 602 c 4
 520 602 579 507.005859375 579 427 c 7
 579 252.986328125 350.50390625 248 349 6 c 1028
EndSplineSet
Fore
SplineSet
300 -168 m 4xf4
 300 -142 322 -120 349 -120 c 4
 376 -120 398 -142 398 -168 c 4
 398 -194 376 -216 349 -216 c 4
 322 -216 300 -194 300 -168 c 4xf4
229.904296875 244.087890625 m 1
 220.9921875 226.18359375 l 1
 203.08203125 235.098632812 l 2
 199.788085938 236.73828125 99 288.340820312 99 427 c 0
 99 521.478515625 169.336914062 622 349 622 c 0
 528.912109375 622 599 518.4453125 599 427 c 0
 599 230.303710938 370.403320312 231.774414062 369 5.8759765625 c 1
 369 4.8759765625 369.005859375 6.8759765625 369 5.8759765625 c 1
 368.875 -14.1240234375 l 1
 348.875976562 -14 l 1
 328.875976562 -13.875 l 1
 329 6.1240234375 l 2xec
 330.603515625 264.225585938 559 275.668945312 559 427 c 0
 559 495.56640625 511.087890625 582 349 582 c 0
 186.663085938 582 139 498.521484375 139 427 c 0
 139 313.422851562 218.7109375 272.036132812 220.944335938 270.888671875 c 2
 238.81640625 261.9921875 l 1
 229.904296875 244.087890625 l 1
EndSplineSet
EndChar

StartChar: exclam
Encoding: 494 33 149
Width: 350
VWidth: 0
Flags: W
HStem: -216 96<134.385 215.615>
VStem: 126 98<-207.668 -128.332> 151 40<35 622>
LayerCount: 2
Back
SplineSet
171 602 m 29
 171 55 l 1053
EndSplineSet
Fore
SplineSet
171 622 m 1xa0
 191 622 l 1
 191 602 l 1
 191 55 l 1
 191 35 l 1
 171 35 l 1
 151 35 l 1
 151 55 l 1
 151 602 l 1
 151 622 l 1
 171 622 l 1xa0
126 -168 m 0xc0
 126 -142 148 -120 175 -120 c 0
 202 -120 224 -142 224 -168 c 0
 224 -194 202 -216 175 -216 c 0
 148 -216 126 -194 126 -168 c 0xc0
EndSplineSet
EndChar

StartChar: less
Encoding: 495 60 150
Width: 807
VWidth: 0
Flags: W
LayerCount: 2
Back
SplineSet
635 427 m 29
 134 130 l 29
 636 -168 l 1053
EndSplineSet
Fore
SplineSet
652.204157037 437.198871537 m 1
 662.403028575 419.9947145 l 1
 645.198871537 409.795842963 l 1
 173.200188125 129.988240221 l 1
 646.209191951 -150.801965237 l 1
 663.407226714 -161.011157188 l 1
 653.198034763 -178.209191951 l 1
 642.988842812 -195.407226714 l 1
 625.790808049 -185.198034763 l 1
 123.790808049 112.801965237 l 2
 121.896556716 113.926441128 119.257407952 116.199397544 117.649048651 118.482778548 c 0
 111.028763702 127.881569529 113.911901069 141.341680917 123.801128463 147.204157037 c 2
 624.801128463 444.204157037 l 1
 642.0052855 454.403028575 l 1
 652.204157037 437.198871537 l 1
EndSplineSet
EndChar

StartChar: braceleft
Encoding: 497 123 152
Width: 535
VWidth: 0
Flags: W
HStem: -362.996 39.9956<323.77 424.919> 582.001 39.9989<404.855 424.859>
VStem: 204 40<-246.883 4.64282 252.519 503.755>
LayerCount: 2
Back
SplineSet
405 602 m 5
 405 602 224 601 224 426 c 7
 224 128.958007812 105 129 105 129 c 29
 105 129 224 129.006835938 224 -169 c 7
 224 -344.002929688 405 -343 405 -343 c 1029
EndSplineSet
Fore
SplineSet
424.999509566 602.140061107 m 1
 425.139570673 582.14055154 l 1
 405.14768872 582.000543852 l 2
 398.630975171 581.91577296 244 578.598547595 244 426 c 0
 244 237.945432777 196.997430612 160.927439098 155.075765453 128.968038884 c 1
 197.678009812 96.5103809169 244 19.0186321414 244 -169 c 0
 244 -321.896452712 399.342146899 -322.98928697 404.926383048 -323.000134029 c 2
 424.918582459 -322.918912559 l 1
 424.99983495 -342.918747509 l 1
 425.081087441 -362.918582459 l 1
 406.081244238 -362.995772326 l 2
 405.799505238 -362.996916935 204 -364.243940462 204 -169 c 0
 204 108.201707747 104.029789772 109.030839832 104.029789772 109.030839832 c 1
 95.6122966897 109.66822353 85.9463488902 116.59919262 85.0663926873 127.37171885 c 0
 84.179492705 138.229251636 94.0109971792 148.168956583 101.559686019 148.785587504 c 0
 104.808201885 149.011578067 204 149.058013816 204 426 c 0
 204 620.465957978 404.854901933 621.999476778 404.854901933 621.999476778 c 1
 424.85944846 622.139570673 l 1
 424.999509566 602.140061107 l 1
EndSplineSet
EndChar

StartChar: guillemotleft
Encoding: 160 171 154
Width: 800
VWidth: 0
Flags: W
LayerCount: 2
Back
SplineSet
722.749023438 427 m 5
 370.749023438 130 l 29
 722.749023438 -168 l 1029
420.749023438 427 m 5
 68.7490234375 130 l 29
 420.749023438 -168 l 1029
EndSplineSet
Fore
SplineSet
738.03515625 439.897460938 m 1
 750.932617188 424.611328125 l 1
 735.646484375 411.713867188 l 1
 401.732421875 129.974609375 l 1
 735.671875 -152.735351562 l 1
 750.936523438 -165.658203125 l 1
 738.013671875 -180.922851562 l 1
 725.090820312 -196.1875 l 1
 709.826171875 -183.264648438 l 1
 357.826171875 114.735351562 l 2
 350.078125 121.294921875 347.61328125 136.647460938 357.8515625 145.286132812 c 2
 709.8515625 442.286132812 l 1
 725.137695312 455.18359375 l 1
 738.03515625 439.897460938 l 1
436.03515625 439.897460938 m 1
 448.932617188 424.611328125 l 1
 433.646484375 411.713867188 l 1
 99.732421875 129.974609375 l 1
 433.671875 -152.735351562 l 1
 448.936523438 -165.658203125 l 1
 436.013671875 -180.922851562 l 1
 423.090820312 -196.1875 l 1
 407.826171875 -183.264648438 l 1
 55.826171875 114.735351562 l 2
 48.078125 121.294921875 45.61328125 136.647460938 55.8515625 145.286132812 c 2
 407.8515625 442.286132812 l 1
 423.137695312 455.18359375 l 1
 436.03515625 439.897460938 l 1
EndSplineSet
EndChar

StartChar: semicolon
Encoding: 503 59 155
Width: 326
VWidth: 0
Flags: W
HStem: -41 96<134.385 178.762> 205 96<134.385 215.615>
VStem: 126 98<213.332 292.668>
LayerCount: 2
Back
SplineSet
207 7 m 29
 207 7 275 -76 175 -168 c 1028
EndSplineSet
Fore
SplineSet
194.368996609 22.5067002724 m 1
 209.875696882 35.1377036633 l 1
 222.510744964 19.626047443 l 2
 224.77501259 16.8462746619 299.53350179 -80.6056387552 188.541130616 -182.718620235 c 2
 173.822510381 -196.259750852 l 1
 160.281379765 -181.541130616 l 1
 146.740249148 -166.822510381 l 1
 161.458869384 -153.281379765 l 2
 247.313823748 -74.2948217492 193.494982019 -8.17985434277 191.459452867 -5.58945062533 c 2
 178.862296337 9.87569688157 l 1
 194.368996609 22.5067002724 l 1
126 7 m 0
 126 33 148 55 175 55 c 0
 202 55 224 33 224 7 c 0
 224 -19 202 -41 175 -41 c 0
 148 -41 126 -19 126 7 c 0
126 253 m 0
 126 279 148 301 175 301 c 0
 202 301 224 279 224 253 c 0
 224 227 202 205 175 205 c 0
 148 205 126 227 126 253 c 0
EndSplineSet
EndChar

StartChar: quotedbl
Encoding: 504 34 156
Width: 407
VWidth: 0
Flags: W
HStem: 407 215<112 152 266 306>
VStem: 112 40<407 622> 266 40<407 622>
LayerCount: 2
Back
SplineSet
286 602 m 29
 286 427 l 1053
132 602 m 29
 132 427 l 1053
EndSplineSet
Fore
SplineSet
286 622 m 1
 306 622 l 1
 306 602 l 1
 306 427 l 1
 306 407 l 1
 286 407 l 1
 266 407 l 1
 266 427 l 1
 266 602 l 1
 266 622 l 1
 286 622 l 1
132 622 m 1
 152 622 l 1
 152 602 l 1
 152 427 l 1
 152 407 l 1
 132 407 l 1
 112 407 l 1
 112 427 l 1
 112 602 l 1
 112 622 l 1
 132 622 l 1
EndSplineSet
EndChar

StartChar: parenleft
Encoding: 162 40 160
Width: 500
VWidth: 0
Flags: W
VStem: 84 40<5.95322 252.186>
LayerCount: 2
Back
SplineSet
377 602 m 25
 377 602 104.002929688 428.009765625 104 129 c 0
 103.997070312 -168.991210938 377 -343 377 -343 c 1049
EndSplineSet
Fore
SplineSet
393.858814103 612.760129508 m 1
 404.618943611 595.901315405 l 1
 387.760470096 585.141403277 l 2
 384.895406278 583.304853492 124.002788148 413.563847399 123.999999999 128.999803371 c 0
 123.997207842 -155.002544825 385.764860967 -324.862090186 387.761016822 -326.141752254 c 2
 404.619171903 -336.902349352 l 1
 393.858411275 -353.760760628 l 1
 383.097650648 -370.619171903 l 1
 367.082159936 -360.396449306 l 2
 364.827407303 -358.957235791 83.9969452132 -181.715509044 84.000000001 129.000196629 c 0
 84.003047324 440.016075152 364.611757328 617.819672403 366.237590454 618.857359567 c 2
 383.098684595 629.618943611 l 1
 393.858814103 612.760129508 l 1
EndSplineSet
EndChar

StartChar: denpabu_iy
Encoding: 174 -1 161
Width: 810
VWidth: 2197
Flags: W
HStem: 35.4942 40<151.868 700.2> 236 40<396.049 539.951> 580 40<396.049 539.951>
VStem: 111.868 40<74.9653 617.802> 280 40<352.795 503.205> 616 40<352.795 503.205>
AnchorPoint: "Above" 405 0 basechar 0
LayerCount: 2
Back
SplineSet
300 428 m 4
 300 523 375 600 468 600 c 4
 561 600 636 523 636 428 c 4
 636 333 561 256 468 256 c 4
 375 256 300 333 300 428 c 4
EndSplineSet
Fore
SplineSet
320 428 m 0
 320 343.617839792 386.448263861 276 468 276 c 0
 549.551419257 276 616 343.61777822 616 428 c 0
 616 512.382160208 549.551736139 580 468 580 c 0
 386.448580743 580 320 512.38222178 320 428 c 0
280 428 m 0
 280 533.61777822 363.551419257 620 468 620 c 0
 572.448263861 620 656 533.617839792 656 428 c 0
 656 322.38222178 572.448580743 236 468 236 c 0
 363.551736139 236 280 322.382160208 280 428 c 0
131.868164062 617.801757812 m 1
 151.868164062 617.801757812 l 1
 151.868164062 597.801757812 l 1
 151.868164062 74.965339899 l 1
 680.199709191 75.4941306076 l 1
 700.199699174 75.5141479792 l 1
 700.219716545 55.5141579966 l 1
 700.239733917 35.514168014 l 1
 680.239743934 35.4941506424 l 1
 131.888181434 34.9453225174 l 2
 123.267228711 34.9366940723 111.868164062 42.8457428906 111.868164062 54.9453125 c 2
 111.868164062 597.801757812 l 1
 111.868164062 617.801757812 l 1
 131.868164062 617.801757812 l 1
EndSplineSet
Ligature2: "Vdenpabu subtable" denpabu iy
EndChar

StartChar: denpabu_uy
Encoding: 175 -1 162
Width: 810
VWidth: 2197
Flags: W
HStem: 35.4941 40<111.868 662.418> 235 40<271.049 414.951> 579 40<271.049 414.951>
VStem: 155 40<351.795 502.205> 491 40<351.795 502.205> 662.418 40<75.4941 624.396>
AnchorPoint: "Above" 405 0 basechar 0
LayerCount: 2
Back
SplineSet
175 427 m 0
 175 522 250 599 343 599 c 0
 436 599 511 522 511 427 c 0
 511 332 436 255 343 255 c 0
 250 255 175 332 175 427 c 0
111.868164062 55.494140625 m 1
 111.868164062 75.494140625 l 1
 131.868164062 75.494140625 l 1
 662.41796875 75.494140625 l 1
 662.41796875 604.395507812 l 1
 662.41796875 624.395507812 l 1
 682.41796875 624.395507812 l 1
 702.41796875 624.395507812 l 1
 702.41796875 604.395507812 l 1
 702.41796875 55.494140625 l 2
 702.41796875 46.9102171589 694.523999034 35.494140625 682.41796875 35.494140625 c 2
 131.868164062 35.494140625 l 1
 111.868164062 35.494140625 l 1
 111.868164062 55.494140625 l 1
EndSplineSet
Fore
SplineSet
195 427 m 0
 195 342.617839792 261.448263861 275 343 275 c 0
 424.551419257 275 491 342.61777822 491 427 c 0
 491 511.382160208 424.551736139 579 343 579 c 0
 261.448580743 579 195 511.38222178 195 427 c 0
155 427 m 0
 155 532.61777822 238.551419257 619 343 619 c 0
 447.448263861 619 531 532.617839792 531 427 c 0
 531 321.38222178 447.448580743 235 343 235 c 0
 238.551736139 235 155 321.382160208 155 427 c 0
111.868164062 55.494140625 m 1
 111.868164062 75.494140625 l 1
 131.868164062 75.494140625 l 1
 662.41796875 75.494140625 l 1
 662.41796875 604.395507812 l 1
 662.41796875 624.395507812 l 1
 682.41796875 624.395507812 l 1
 702.41796875 624.395507812 l 1
 702.41796875 604.395507812 l 1
 702.41796875 55.494140625 l 2
 702.41796875 46.9102171589 694.523999034 35.494140625 682.41796875 35.494140625 c 2
 131.868164062 35.494140625 l 1
 111.868164062 35.494140625 l 1
 111.868164062 55.494140625 l 1
EndSplineSet
Ligature2: "Vdenpabu subtable" denpabu uy
EndChar
